<svg width="476" height="207" viewBox="0 0 476 207" fill="none" xmlns="http://www.w3.org/2000/svg">
<rect x="0.00952148" y="0.724915" width="475.99" height="206" rx="15" fill="white"/>
<rect x="0.00952148" y="0.724915" width="20" height="206" rx="10" fill="#E9D502"/>
<path d="M89.4815 82.2249V68.5929H84.1055V65.4249H98.7455V68.5929H93.3695V82.2249H89.4815ZM105.74 82.4169C104.668 82.4169 103.708 82.2089 102.86 81.7929C102.028 81.3769 101.38 80.7449 100.916 79.8969C100.452 79.0329 100.22 77.9369 100.22 76.6089V69.3129H103.964V76.0569C103.964 77.1289 104.188 77.9209 104.636 78.4329C105.1 78.9289 105.748 79.1769 106.58 79.1769C107.156 79.1769 107.668 79.0569 108.116 78.8169C108.564 78.5609 108.916 78.1769 109.172 77.6649C109.428 77.1369 109.556 76.4809 109.556 75.6969V69.3129H113.3V82.2249H109.748V78.6729L110.396 79.7049C109.964 80.6009 109.324 81.2809 108.476 81.7449C107.644 82.1929 106.732 82.4169 105.74 82.4169ZM122.841 87.0729C121.625 87.0729 120.449 86.9209 119.313 86.6169C118.193 86.3289 117.257 85.8889 116.505 85.2969L117.993 82.6089C118.537 83.0569 119.225 83.4089 120.057 83.6649C120.905 83.9369 121.737 84.0729 122.553 84.0729C123.881 84.0729 124.841 83.7769 125.433 83.1849C126.041 82.5929 126.345 81.7129 126.345 80.5449V78.6009L126.585 75.3609L126.537 72.0969V69.3129H130.089V80.0649C130.089 82.4649 129.465 84.2329 128.217 85.3689C126.969 86.5049 125.177 87.0729 122.841 87.0729ZM122.265 81.6009C121.065 81.6009 119.977 81.3449 119.001 80.8329C118.041 80.3049 117.265 79.5769 116.673 78.6489C116.097 77.7049 115.809 76.6089 115.809 75.3609C115.809 74.0969 116.097 73.0009 116.673 72.0729C117.265 71.1289 118.041 70.4009 119.001 69.8889C119.977 69.3769 121.065 69.1209 122.265 69.1209C123.353 69.1209 124.313 69.3449 125.145 69.7929C125.977 70.2249 126.625 70.9049 127.089 71.8329C127.553 72.7449 127.785 73.9209 127.785 75.3609C127.785 76.7849 127.553 77.9609 127.089 78.8889C126.625 79.8009 125.977 80.4809 125.145 80.9289C124.313 81.3769 123.353 81.6009 122.265 81.6009ZM123.009 78.5289C123.665 78.5289 124.249 78.4009 124.761 78.1449C125.273 77.8729 125.673 77.4969 125.961 77.0169C126.249 76.5369 126.393 75.9849 126.393 75.3609C126.393 74.7209 126.249 74.1689 125.961 73.7049C125.673 73.2249 125.273 72.8569 124.761 72.6009C124.249 72.3289 123.665 72.1929 123.009 72.1929C122.353 72.1929 121.769 72.3289 121.257 72.6009C120.745 72.8569 120.337 73.2249 120.033 73.7049C119.745 74.1689 119.601 74.7209 119.601 75.3609C119.601 75.9849 119.745 76.5369 120.033 77.0169C120.337 77.4969 120.745 77.8729 121.257 78.1449C121.769 78.4009 122.353 78.5289 123.009 78.5289ZM141.493 82.2249V79.7049L141.253 79.1529V74.6409C141.253 73.8409 141.005 73.2169 140.509 72.7689C140.029 72.3209 139.285 72.0969 138.277 72.0969C137.589 72.0969 136.909 72.2089 136.237 72.4329C135.581 72.6409 135.021 72.9289 134.557 73.2969L133.213 70.6809C133.917 70.1849 134.765 69.8009 135.757 69.5289C136.749 69.2569 137.757 69.1209 138.781 69.1209C140.749 69.1209 142.277 69.5849 143.365 70.5129C144.453 71.4409 144.997 72.8889 144.997 74.8569V82.2249H141.493ZM137.557 82.4169C136.549 82.4169 135.685 82.2489 134.965 81.9129C134.245 81.5609 133.693 81.0889 133.309 80.4969C132.925 79.9049 132.733 79.2409 132.733 78.5049C132.733 77.7369 132.917 77.0649 133.285 76.4889C133.669 75.9129 134.269 75.4649 135.085 75.1449C135.901 74.8089 136.965 74.6409 138.277 74.6409H141.709V76.8249H138.685C137.805 76.8249 137.197 76.9689 136.861 77.2569C136.541 77.5449 136.381 77.9049 136.381 78.3369C136.381 78.8169 136.565 79.2009 136.933 79.4889C137.317 79.7609 137.837 79.8969 138.493 79.8969C139.117 79.8969 139.677 79.7529 140.173 79.4649C140.669 79.1609 141.029 78.7209 141.253 78.1449L141.829 79.8729C141.557 80.7049 141.061 81.3369 140.341 81.7689C139.621 82.2009 138.693 82.4169 137.557 82.4169ZM152.73 82.4169C151.626 82.4169 150.562 82.2889 149.538 82.0329C148.53 81.7609 147.73 81.4249 147.138 81.0249L148.386 78.3369C148.978 78.7049 149.674 79.0089 150.474 79.2489C151.29 79.4729 152.09 79.5849 152.874 79.5849C153.738 79.5849 154.346 79.4809 154.698 79.2729C155.066 79.0649 155.25 78.7769 155.25 78.4089C155.25 78.1049 155.106 77.8809 154.818 77.7369C154.546 77.5769 154.178 77.4569 153.714 77.3769C153.25 77.2969 152.738 77.2169 152.178 77.1369C151.634 77.0569 151.082 76.9529 150.522 76.8249C149.962 76.6809 149.45 76.4729 148.986 76.2009C148.522 75.9289 148.146 75.5609 147.858 75.0969C147.586 74.6329 147.45 74.0329 147.45 73.2969C147.45 72.4809 147.682 71.7609 148.146 71.1369C148.626 70.5129 149.314 70.0249 150.21 69.6729C151.106 69.3049 152.178 69.1209 153.426 69.1209C154.306 69.1209 155.202 69.2169 156.114 69.4089C157.026 69.6009 157.786 69.8809 158.394 70.2489L157.146 72.9129C156.522 72.5449 155.89 72.2969 155.25 72.1689C154.626 72.0249 154.018 71.9529 153.426 71.9529C152.594 71.9529 151.986 72.0649 151.602 72.2889C151.218 72.5129 151.026 72.8009 151.026 73.1529C151.026 73.4729 151.162 73.7129 151.434 73.8729C151.722 74.0329 152.098 74.1609 152.562 74.2569C153.026 74.3529 153.53 74.4409 154.074 74.5209C154.634 74.5849 155.194 74.6889 155.754 74.8329C156.314 74.9769 156.818 75.1849 157.266 75.4569C157.73 75.7129 158.106 76.0729 158.394 76.5369C158.682 76.9849 158.826 77.5769 158.826 78.3129C158.826 79.1129 158.586 79.8249 158.106 80.4489C157.626 81.0569 156.93 81.5369 156.018 81.8889C155.122 82.2409 154.026 82.4169 152.73 82.4169ZM173.717 82.5129C172.373 82.5129 171.085 82.3369 169.853 81.9849C168.621 81.6169 167.629 81.1449 166.877 80.5689L168.197 77.6409C168.917 78.1529 169.765 78.5769 170.741 78.9129C171.733 79.2329 172.733 79.3929 173.741 79.3929C174.509 79.3929 175.125 79.3209 175.589 79.1769C176.069 79.0169 176.421 78.8009 176.645 78.5289C176.869 78.2569 176.981 77.9449 176.981 77.5929C176.981 77.1449 176.805 76.7929 176.453 76.5369C176.101 76.2649 175.637 76.0489 175.061 75.8889C174.485 75.7129 173.845 75.5529 173.141 75.4089C172.453 75.2489 171.757 75.0569 171.053 74.8329C170.365 74.6089 169.733 74.3209 169.157 73.9689C168.581 73.6169 168.109 73.1529 167.741 72.5769C167.389 72.0009 167.213 71.2649 167.213 70.3689C167.213 69.4089 167.469 68.5369 167.981 67.7529C168.509 66.9529 169.293 66.3209 170.333 65.8569C171.389 65.3769 172.709 65.1369 174.293 65.1369C175.349 65.1369 176.389 65.2649 177.413 65.5209C178.437 65.7609 179.341 66.1289 180.125 66.6249L178.925 69.5769C178.141 69.1289 177.357 68.8009 176.573 68.5929C175.789 68.3689 175.021 68.2569 174.269 68.2569C173.517 68.2569 172.901 68.3449 172.421 68.5209C171.941 68.6969 171.597 68.9289 171.389 69.2169C171.181 69.4889 171.077 69.8089 171.077 70.1769C171.077 70.6089 171.253 70.9609 171.605 71.2329C171.957 71.4889 172.421 71.6969 172.997 71.8569C173.573 72.0169 174.205 72.1769 174.893 72.3369C175.597 72.4969 176.293 72.6809 176.981 72.8889C177.685 73.0969 178.325 73.3769 178.901 73.7289C179.477 74.0809 179.941 74.5449 180.293 75.1209C180.661 75.6969 180.845 76.4249 180.845 77.3049C180.845 78.2489 180.581 79.1129 180.053 79.8969C179.525 80.6809 178.733 81.3129 177.677 81.7929C176.637 82.2729 175.317 82.5129 173.717 82.5129ZM189.646 82.4169C188.174 82.4169 186.878 82.1289 185.758 81.5529C184.654 80.9769 183.798 80.1929 183.19 79.2009C182.582 78.1929 182.278 77.0489 182.278 75.7689C182.278 74.4729 182.574 73.3289 183.166 72.3369C183.774 71.3289 184.598 70.5449 185.638 69.9849C186.678 69.4089 187.854 69.1209 189.166 69.1209C190.43 69.1209 191.566 69.3929 192.574 69.9369C193.598 70.4649 194.406 71.2329 194.998 72.2409C195.59 73.2329 195.886 74.4249 195.886 75.8169C195.886 75.9609 195.878 76.1289 195.862 76.3209C195.846 76.4969 195.83 76.6649 195.814 76.8249H185.326V74.6409H193.846L192.406 75.2889C192.406 74.6169 192.27 74.0329 191.998 73.5369C191.726 73.0409 191.35 72.6569 190.87 72.3849C190.39 72.0969 189.83 71.9529 189.19 71.9529C188.55 71.9529 187.982 72.0969 187.486 72.3849C187.006 72.6569 186.63 73.0489 186.358 73.5609C186.086 74.0569 185.95 74.6489 185.95 75.3369V75.9129C185.95 76.6169 186.102 77.2409 186.406 77.7849C186.726 78.3129 187.166 78.7209 187.726 79.0089C188.302 79.2809 188.974 79.4169 189.742 79.4169C190.43 79.4169 191.03 79.3129 191.542 79.1049C192.07 78.8969 192.55 78.5849 192.982 78.1689L194.974 80.3289C194.382 81.0009 193.638 81.5209 192.742 81.8889C191.846 82.2409 190.814 82.4169 189.646 82.4169ZM198.378 82.2249V64.4169H202.122V82.2249H198.378ZM212.005 82.4169C210.533 82.4169 209.237 82.1289 208.117 81.5529C207.013 80.9769 206.157 80.1929 205.549 79.2009C204.941 78.1929 204.637 77.0489 204.637 75.7689C204.637 74.4729 204.933 73.3289 205.525 72.3369C206.133 71.3289 206.957 70.5449 207.997 69.9849C209.037 69.4089 210.213 69.1209 211.525 69.1209C212.789 69.1209 213.925 69.3929 214.933 69.9369C215.957 70.4649 216.765 71.2329 217.357 72.2409C217.949 73.2329 218.245 74.4249 218.245 75.8169C218.245 75.9609 218.237 76.1289 218.221 76.3209C218.205 76.4969 218.189 76.6649 218.173 76.8249H207.685V74.6409H216.205L214.765 75.2889C214.765 74.6169 214.629 74.0329 214.357 73.5369C214.085 73.0409 213.709 72.6569 213.229 72.3849C212.749 72.0969 212.189 71.9529 211.549 71.9529C210.909 71.9529 210.341 72.0969 209.845 72.3849C209.365 72.6569 208.989 73.0489 208.717 73.5609C208.445 74.0569 208.309 74.6489 208.309 75.3369V75.9129C208.309 76.6169 208.461 77.2409 208.765 77.7849C209.085 78.3129 209.525 78.7209 210.085 79.0089C210.661 79.2809 211.333 79.4169 212.101 79.4169C212.789 79.4169 213.389 79.3129 213.901 79.1049C214.429 78.8969 214.909 78.5849 215.341 78.1689L217.333 80.3289C216.741 81.0009 215.997 81.5209 215.101 81.8889C214.205 82.2409 213.173 82.4169 212.005 82.4169ZM225.082 82.4169C223.978 82.4169 222.914 82.2889 221.89 82.0329C220.882 81.7609 220.082 81.4249 219.49 81.0249L220.738 78.3369C221.33 78.7049 222.026 79.0089 222.826 79.2489C223.642 79.4729 224.442 79.5849 225.226 79.5849C226.09 79.5849 226.698 79.4809 227.05 79.2729C227.418 79.0649 227.602 78.7769 227.602 78.4089C227.602 78.1049 227.458 77.8809 227.17 77.7369C226.898 77.5769 226.53 77.4569 226.066 77.3769C225.602 77.2969 225.09 77.2169 224.53 77.1369C223.986 77.0569 223.434 76.9529 222.874 76.8249C222.314 76.6809 221.802 76.4729 221.338 76.2009C220.874 75.9289 220.498 75.5609 220.21 75.0969C219.938 74.6329 219.802 74.0329 219.802 73.2969C219.802 72.4809 220.034 71.7609 220.498 71.1369C220.978 70.5129 221.666 70.0249 222.562 69.6729C223.458 69.3049 224.53 69.1209 225.778 69.1209C226.658 69.1209 227.554 69.2169 228.466 69.4089C229.378 69.6009 230.138 69.8809 230.746 70.2489L229.498 72.9129C228.874 72.5449 228.242 72.2969 227.602 72.1689C226.978 72.0249 226.37 71.9529 225.778 71.9529C224.946 71.9529 224.338 72.0649 223.954 72.2889C223.57 72.5129 223.378 72.8009 223.378 73.1529C223.378 73.4729 223.514 73.7129 223.786 73.8729C224.074 74.0329 224.45 74.1609 224.914 74.2569C225.378 74.3529 225.882 74.4409 226.426 74.5209C226.986 74.5849 227.546 74.6889 228.106 74.8329C228.666 74.9769 229.17 75.1849 229.618 75.4569C230.082 75.7129 230.458 76.0729 230.746 76.5369C231.034 76.9849 231.178 77.5769 231.178 78.3129C231.178 79.1129 230.938 79.8249 230.458 80.4489C229.978 81.0569 229.282 81.5369 228.37 81.8889C227.474 82.2409 226.378 82.4169 225.082 82.4169ZM241.408 82.2249V79.7049L241.168 79.1529V74.6409C241.168 73.8409 240.92 73.2169 240.424 72.7689C239.944 72.3209 239.2 72.0969 238.192 72.0969C237.504 72.0969 236.824 72.2089 236.152 72.4329C235.496 72.6409 234.936 72.9289 234.472 73.2969L233.128 70.6809C233.832 70.1849 234.68 69.8009 235.672 69.5289C236.664 69.2569 237.672 69.1209 238.696 69.1209C240.664 69.1209 242.192 69.5849 243.28 70.5129C244.368 71.4409 244.912 72.8889 244.912 74.8569V82.2249H241.408ZM237.472 82.4169C236.464 82.4169 235.6 82.2489 234.88 81.9129C234.16 81.5609 233.608 81.0889 233.224 80.4969C232.84 79.9049 232.648 79.2409 232.648 78.5049C232.648 77.7369 232.832 77.0649 233.2 76.4889C233.584 75.9129 234.184 75.4649 235 75.1449C235.816 74.8089 236.88 74.6409 238.192 74.6409H241.624V76.8249H238.6C237.72 76.8249 237.112 76.9689 236.776 77.2569C236.456 77.5449 236.296 77.9049 236.296 78.3369C236.296 78.8169 236.48 79.2009 236.848 79.4889C237.232 79.7609 237.752 79.8969 238.408 79.8969C239.032 79.8969 239.592 79.7529 240.088 79.4649C240.584 79.1609 240.944 78.7209 241.168 78.1449L241.744 79.8729C241.472 80.7049 240.976 81.3369 240.256 81.7689C239.536 82.2009 238.608 82.4169 237.472 82.4169ZM248.3 82.2249V69.3129H252.044V82.2249H248.3ZM250.172 67.5129C249.484 67.5129 248.924 67.3129 248.492 66.9129C248.06 66.5129 247.844 66.0169 247.844 65.4249C247.844 64.8329 248.06 64.3369 248.492 63.9369C248.924 63.5369 249.484 63.3369 250.172 63.3369C250.86 63.3369 251.42 63.5289 251.852 63.9129C252.284 64.2809 252.5 64.7609 252.5 65.3529C252.5 65.9769 252.284 66.4969 251.852 66.9129C251.436 67.3129 250.876 67.5129 250.172 67.5129Z" fill="black"/>
<rect x="319.01" y="46.7249" width="110" height="110" rx="55" fill="#FEF9BB"/>
<path fill-rule="evenodd" clip-rule="evenodd" d="M396.927 101.725C396.927 114.381 386.666 124.642 374.01 124.642C361.354 124.642 351.093 114.381 351.093 101.725C351.093 89.0686 361.354 78.8082 374.01 78.8082C386.666 78.8082 396.927 89.0686 396.927 101.725ZM363.593 103.808L366.718 100.683L370.885 104.85L381.302 94.4332L384.427 97.5582L370.885 111.1L363.593 103.808Z" fill="#B5A602"/>
</svg>
