<svg width="476" height="207" viewBox="0 0 476 207" fill="none" xmlns="http://www.w3.org/2000/svg">
<rect x="0.00952148" y="0.887024" width="475.99" height="206" rx="15" fill="white"/>
<rect x="0.00952148" y="0.887024" width="20" height="206" rx="10" fill="#6B8CAE"/>
<path d="M89.4815 75.387V61.755H84.1055V58.587H98.7455V61.755H93.3695V75.387H89.4815ZM105.405 75.579C104.029 75.579 102.805 75.291 101.733 74.715C100.677 74.139 99.837 73.355 99.213 72.363C98.605 71.355 98.301 70.211 98.301 68.931C98.301 67.635 98.605 66.491 99.213 65.499C99.837 64.491 100.677 63.707 101.733 63.147C102.805 62.571 104.029 62.283 105.405 62.283C106.765 62.283 107.981 62.571 109.053 63.147C110.125 63.707 110.965 64.483 111.573 65.475C112.181 66.467 112.485 67.619 112.485 68.931C112.485 70.211 112.181 71.355 111.573 72.363C110.965 73.355 110.125 74.139 109.053 74.715C107.981 75.291 106.765 75.579 105.405 75.579ZM105.405 72.507C106.029 72.507 106.589 72.363 107.085 72.075C107.581 71.787 107.973 71.379 108.261 70.851C108.549 70.307 108.693 69.667 108.693 68.931C108.693 68.179 108.549 67.539 108.261 67.011C107.973 66.483 107.581 66.075 107.085 65.787C106.589 65.499 106.029 65.355 105.405 65.355C104.781 65.355 104.221 65.499 103.725 65.787C103.229 66.075 102.829 66.483 102.525 67.011C102.237 67.539 102.093 68.179 102.093 68.931C102.093 69.667 102.237 70.307 102.525 70.851C102.829 71.379 103.229 71.787 103.725 72.075C104.221 72.363 104.781 72.507 105.405 72.507ZM120.268 75.579C118.748 75.579 117.564 75.195 116.716 74.427C115.868 73.643 115.444 72.483 115.444 70.947V59.619H119.188V70.899C119.188 71.443 119.332 71.867 119.62 72.171C119.908 72.459 120.3 72.603 120.796 72.603C121.388 72.603 121.892 72.443 122.308 72.123L123.316 74.763C122.932 75.035 122.468 75.243 121.924 75.387C121.396 75.515 120.844 75.579 120.268 75.579ZM113.452 65.643V62.763H122.404V65.643H113.452ZM133.337 75.387V72.867L133.097 72.315V67.803C133.097 67.003 132.849 66.379 132.353 65.931C131.873 65.483 131.129 65.259 130.121 65.259C129.433 65.259 128.753 65.371 128.081 65.595C127.425 65.803 126.865 66.091 126.401 66.459L125.057 63.843C125.761 63.347 126.609 62.963 127.601 62.691C128.593 62.419 129.601 62.283 130.625 62.283C132.593 62.283 134.121 62.747 135.209 63.675C136.297 64.603 136.841 66.051 136.841 68.019V75.387H133.337ZM129.401 75.579C128.393 75.579 127.529 75.411 126.809 75.075C126.089 74.723 125.537 74.251 125.153 73.659C124.769 73.067 124.577 72.403 124.577 71.667C124.577 70.899 124.761 70.227 125.129 69.651C125.513 69.075 126.113 68.627 126.929 68.307C127.745 67.971 128.809 67.803 130.121 67.803H133.553V69.987H130.529C129.649 69.987 129.041 70.131 128.705 70.419C128.385 70.707 128.225 71.067 128.225 71.499C128.225 71.979 128.409 72.363 128.777 72.651C129.161 72.923 129.681 73.059 130.337 73.059C130.961 73.059 131.521 72.915 132.017 72.627C132.513 72.323 132.873 71.883 133.097 71.307L133.673 73.035C133.401 73.867 132.905 74.499 132.185 74.931C131.465 75.363 130.537 75.579 129.401 75.579ZM140.23 75.387V57.579H143.974V75.387H140.23ZM158.085 65.355H166.173V68.379H158.085V65.355ZM158.373 72.267H167.517V75.387H154.509V58.587H167.205V61.707H158.373V72.267ZM173.734 75.387L168.31 62.475H172.174L176.686 73.587H174.766L179.446 62.475H183.046L177.598 75.387H173.734ZM190.63 75.579C189.158 75.579 187.862 75.291 186.742 74.715C185.638 74.139 184.782 73.355 184.174 72.363C183.566 71.355 183.262 70.211 183.262 68.931C183.262 67.635 183.558 66.491 184.15 65.499C184.758 64.491 185.582 63.707 186.622 63.147C187.662 62.571 188.838 62.283 190.15 62.283C191.414 62.283 192.55 62.555 193.558 63.099C194.582 63.627 195.39 64.395 195.982 65.403C196.574 66.395 196.87 67.587 196.87 68.979C196.87 69.123 196.862 69.291 196.846 69.483C196.83 69.659 196.814 69.827 196.798 69.987H186.31V67.803H194.83L193.39 68.451C193.39 67.779 193.254 67.195 192.982 66.699C192.71 66.203 192.334 65.819 191.854 65.547C191.374 65.259 190.814 65.115 190.174 65.115C189.534 65.115 188.966 65.259 188.47 65.547C187.99 65.819 187.614 66.211 187.342 66.723C187.07 67.219 186.934 67.811 186.934 68.499V69.075C186.934 69.779 187.086 70.403 187.39 70.947C187.71 71.475 188.15 71.883 188.71 72.171C189.286 72.443 189.958 72.579 190.726 72.579C191.414 72.579 192.014 72.475 192.526 72.267C193.054 72.059 193.534 71.747 193.966 71.331L195.958 73.491C195.366 74.163 194.622 74.683 193.726 75.051C192.83 75.403 191.798 75.579 190.63 75.579ZM207.211 62.283C208.235 62.283 209.147 62.491 209.947 62.907C210.763 63.307 211.403 63.931 211.867 64.779C212.331 65.611 212.563 66.683 212.563 67.995V75.387H208.819V68.571C208.819 67.531 208.587 66.763 208.123 66.267C207.675 65.771 207.035 65.523 206.203 65.523C205.611 65.523 205.075 65.651 204.595 65.907C204.131 66.147 203.763 66.523 203.491 67.035C203.235 67.547 203.107 68.203 203.107 69.003V75.387H199.363V62.475H202.939V66.051L202.267 64.971C202.731 64.107 203.395 63.443 204.259 62.979C205.123 62.515 206.107 62.283 207.211 62.283ZM221.236 75.579C219.716 75.579 218.532 75.195 217.684 74.427C216.836 73.643 216.412 72.483 216.412 70.947V59.619H220.156V70.899C220.156 71.443 220.3 71.867 220.588 72.171C220.876 72.459 221.268 72.603 221.764 72.603C222.356 72.603 222.86 72.443 223.276 72.123L224.284 74.763C223.9 75.035 223.436 75.243 222.892 75.387C222.364 75.515 221.812 75.579 221.236 75.579ZM214.42 65.643V62.763H223.372V65.643H214.42Z" fill="black"/>
<rect x="317.01" y="40.887" width="110" height="110" rx="55" fill="#CED9E4"/>
<g clip-path="url(#clip0_154_258)">
<path d="M357.947 70.887C358.361 70.887 358.759 71.0516 359.052 71.3447C359.345 71.6377 359.51 72.0351 359.51 72.4495V74.012H384.51V72.4495C384.51 72.0351 384.674 71.6377 384.967 71.3447C385.26 71.0516 385.658 70.887 386.072 70.887C386.486 70.887 386.884 71.0516 387.177 71.3447C387.47 71.6377 387.635 72.0351 387.635 72.4495V74.012H390.76C392.417 74.012 394.007 74.6705 395.179 75.8426C396.351 77.0147 397.01 78.6044 397.01 80.262V114.637C397.01 116.295 396.351 117.884 395.179 119.056C394.007 120.229 392.417 120.887 390.76 120.887H353.26C351.602 120.887 350.012 120.229 348.84 119.056C347.668 117.884 347.01 116.295 347.01 114.637V80.262C347.01 78.6044 347.668 77.0147 348.84 75.8426C350.012 74.6705 351.602 74.012 353.26 74.012H356.385V72.4495C356.385 72.0351 356.549 71.6377 356.842 71.3447C357.135 71.0516 357.533 70.887 357.947 70.887ZM389.053 80.262H354.963C354.025 80.262 353.26 80.962 353.26 81.8245V84.9495C353.26 85.812 354.022 86.512 354.963 86.512H389.056C389.994 86.512 390.76 85.812 390.76 84.9495V81.8245C390.76 80.962 389.997 80.262 389.053 80.262ZM382.947 92.762C382.533 92.762 382.135 92.9266 381.842 93.2197C381.549 93.5127 381.385 93.9101 381.385 94.3245V97.4495C381.385 97.8639 381.549 98.2614 381.842 98.5544C382.135 98.8474 382.533 99.012 382.947 99.012H386.072C386.486 99.012 386.884 98.8474 387.177 98.5544C387.47 98.2614 387.635 97.8639 387.635 97.4495V94.3245C387.635 93.9101 387.47 93.5127 387.177 93.2197C386.884 92.9266 386.486 92.762 386.072 92.762H382.947Z" fill="#6B8CAE"/>
</g>
<defs>
<clipPath id="clip0_154_258">
<rect width="50" height="50" fill="white" transform="translate(347.01 70.887)"/>
</clipPath>
</defs>
</svg>
