<svg width="476" height="207" viewBox="0 0 476 207" fill="none" xmlns="http://www.w3.org/2000/svg">
<rect x="0.00952148" y="0.724915" width="475.99" height="206" rx="15" fill="white"/>
<rect x="0.00952148" y="0.724915" width="20" height="206" rx="10" fill="#DA9F65"/>
<path d="M89.4815 72.2249V58.5929H84.1055V55.4249H98.7455V58.5929H93.3695V72.2249H89.4815ZM105.405 72.4169C104.029 72.4169 102.805 72.1289 101.733 71.5529C100.677 70.9769 99.837 70.1929 99.213 69.2009C98.605 68.1929 98.301 67.0489 98.301 65.7689C98.301 64.4729 98.605 63.3289 99.213 62.3369C99.837 61.3289 100.677 60.5449 101.733 59.9849C102.805 59.4089 104.029 59.1209 105.405 59.1209C106.765 59.1209 107.981 59.4089 109.053 59.9849C110.125 60.5449 110.965 61.3209 111.573 62.3129C112.181 63.3049 112.485 64.4569 112.485 65.7689C112.485 67.0489 112.181 68.1929 111.573 69.2009C110.965 70.1929 110.125 70.9769 109.053 71.5529C107.981 72.1289 106.765 72.4169 105.405 72.4169ZM105.405 69.3449C106.029 69.3449 106.589 69.2009 107.085 68.9129C107.581 68.6249 107.973 68.2169 108.261 67.6889C108.549 67.1449 108.693 66.5049 108.693 65.7689C108.693 65.0169 108.549 64.3769 108.261 63.8489C107.973 63.3209 107.581 62.9129 107.085 62.6249C106.589 62.3369 106.029 62.1929 105.405 62.1929C104.781 62.1929 104.221 62.3369 103.725 62.6249C103.229 62.9129 102.829 63.3209 102.525 63.8489C102.237 64.3769 102.093 65.0169 102.093 65.7689C102.093 66.5049 102.237 67.1449 102.525 67.6889C102.829 68.2169 103.229 68.6249 103.725 68.9129C104.221 69.2009 104.781 69.3449 105.405 69.3449ZM120.268 72.4169C118.748 72.4169 117.564 72.0329 116.716 71.2649C115.868 70.4809 115.444 69.3209 115.444 67.7849V56.4569H119.188V67.7369C119.188 68.2809 119.332 68.7049 119.62 69.0089C119.908 69.2969 120.3 69.4409 120.796 69.4409C121.388 69.4409 121.892 69.2809 122.308 68.9609L123.316 71.6009C122.932 71.8729 122.468 72.0809 121.924 72.2249C121.396 72.3529 120.844 72.4169 120.268 72.4169ZM113.452 62.4809V59.6009H122.404V62.4809H113.452ZM133.337 72.2249V69.7049L133.097 69.1529V64.6409C133.097 63.8409 132.849 63.2169 132.353 62.7689C131.873 62.3209 131.129 62.0969 130.121 62.0969C129.433 62.0969 128.753 62.2089 128.081 62.4329C127.425 62.6409 126.865 62.9289 126.401 63.2969L125.057 60.6809C125.761 60.1849 126.609 59.8009 127.601 59.5289C128.593 59.2569 129.601 59.1209 130.625 59.1209C132.593 59.1209 134.121 59.5849 135.209 60.5129C136.297 61.4409 136.841 62.8889 136.841 64.8569V72.2249H133.337ZM129.401 72.4169C128.393 72.4169 127.529 72.2489 126.809 71.9129C126.089 71.5609 125.537 71.0889 125.153 70.4969C124.769 69.9049 124.577 69.2409 124.577 68.5049C124.577 67.7369 124.761 67.0649 125.129 66.4889C125.513 65.9129 126.113 65.4649 126.929 65.1449C127.745 64.8089 128.809 64.6409 130.121 64.6409H133.553V66.8249H130.529C129.649 66.8249 129.041 66.9689 128.705 67.2569C128.385 67.5449 128.225 67.9049 128.225 68.3369C128.225 68.8169 128.409 69.2009 128.777 69.4889C129.161 69.7609 129.681 69.8969 130.337 69.8969C130.961 69.8969 131.521 69.7529 132.017 69.4649C132.513 69.1609 132.873 68.7209 133.097 68.1449L133.673 69.8729C133.401 70.7049 132.905 71.3369 132.185 71.7689C131.465 72.2009 130.537 72.4169 129.401 72.4169ZM140.23 72.2249V54.4169H143.974V72.2249H140.23ZM157.989 72.2249V58.5929H152.613V55.4249H167.253V58.5929H161.877V72.2249H157.989ZM174.248 72.4169C173.176 72.4169 172.216 72.2089 171.368 71.7929C170.536 71.3769 169.888 70.7449 169.424 69.8969C168.96 69.0329 168.728 67.9369 168.728 66.6089V59.3129H172.472V66.0569C172.472 67.1289 172.696 67.9209 173.144 68.4329C173.608 68.9289 174.256 69.1769 175.088 69.1769C175.664 69.1769 176.176 69.0569 176.624 68.8169C177.072 68.5609 177.424 68.1769 177.68 67.6649C177.936 67.1369 178.064 66.4809 178.064 65.6969V59.3129H181.808V72.2249H178.256V68.6729L178.904 69.7049C178.472 70.6009 177.832 71.2809 176.984 71.7449C176.152 72.1929 175.24 72.4169 174.248 72.4169ZM191.349 77.0729C190.133 77.0729 188.957 76.9209 187.821 76.6169C186.701 76.3289 185.765 75.8889 185.013 75.2969L186.501 72.6089C187.045 73.0569 187.733 73.4089 188.565 73.6649C189.413 73.9369 190.245 74.0729 191.061 74.0729C192.389 74.0729 193.349 73.7769 193.941 73.1849C194.549 72.5929 194.853 71.7129 194.853 70.5449V68.6009L195.093 65.3609L195.045 62.0969V59.3129H198.597V70.0649C198.597 72.4649 197.973 74.2329 196.725 75.3689C195.477 76.5049 193.685 77.0729 191.349 77.0729ZM190.773 71.6009C189.573 71.6009 188.485 71.3449 187.509 70.8329C186.549 70.3049 185.773 69.5769 185.181 68.6489C184.605 67.7049 184.317 66.6089 184.317 65.3609C184.317 64.0969 184.605 63.0009 185.181 62.0729C185.773 61.1289 186.549 60.4009 187.509 59.8889C188.485 59.3769 189.573 59.1209 190.773 59.1209C191.861 59.1209 192.821 59.3449 193.653 59.7929C194.485 60.2249 195.133 60.9049 195.597 61.8329C196.061 62.7449 196.293 63.9209 196.293 65.3609C196.293 66.7849 196.061 67.9609 195.597 68.8889C195.133 69.8009 194.485 70.4809 193.653 70.9289C192.821 71.3769 191.861 71.6009 190.773 71.6009ZM191.517 68.5289C192.173 68.5289 192.757 68.4009 193.269 68.1449C193.781 67.8729 194.181 67.4969 194.469 67.0169C194.757 66.5369 194.901 65.9849 194.901 65.3609C194.901 64.7209 194.757 64.1689 194.469 63.7049C194.181 63.2249 193.781 62.8569 193.269 62.6009C192.757 62.3289 192.173 62.1929 191.517 62.1929C190.861 62.1929 190.277 62.3289 189.765 62.6009C189.253 62.8569 188.845 63.2249 188.541 63.7049C188.253 64.1689 188.109 64.7209 188.109 65.3609C188.109 65.9849 188.253 66.5369 188.541 67.0169C188.845 67.4969 189.253 67.8729 189.765 68.1449C190.277 68.4009 190.861 68.5289 191.517 68.5289ZM210.001 72.2249V69.7049L209.761 69.1529V64.6409C209.761 63.8409 209.513 63.2169 209.017 62.7689C208.537 62.3209 207.793 62.0969 206.785 62.0969C206.097 62.0969 205.417 62.2089 204.745 62.4329C204.089 62.6409 203.529 62.9289 203.065 63.2969L201.721 60.6809C202.425 60.1849 203.273 59.8009 204.265 59.5289C205.257 59.2569 206.265 59.1209 207.289 59.1209C209.257 59.1209 210.785 59.5849 211.873 60.5129C212.961 61.4409 213.505 62.8889 213.505 64.8569V72.2249H210.001ZM206.065 72.4169C205.057 72.4169 204.193 72.2489 203.473 71.9129C202.753 71.5609 202.201 71.0889 201.817 70.4969C201.433 69.9049 201.241 69.2409 201.241 68.5049C201.241 67.7369 201.425 67.0649 201.793 66.4889C202.177 65.9129 202.777 65.4649 203.593 65.1449C204.409 64.8089 205.473 64.6409 206.785 64.6409H210.217V66.8249H207.193C206.313 66.8249 205.705 66.9689 205.369 67.2569C205.049 67.5449 204.889 67.9049 204.889 68.3369C204.889 68.8169 205.073 69.2009 205.441 69.4889C205.825 69.7609 206.345 69.8969 207.001 69.8969C207.625 69.8969 208.185 69.7529 208.681 69.4649C209.177 69.1609 209.537 68.7209 209.761 68.1449L210.337 69.8729C210.065 70.7049 209.569 71.3369 208.849 71.7689C208.129 72.2009 207.201 72.4169 206.065 72.4169ZM221.238 72.4169C220.134 72.4169 219.07 72.2889 218.046 72.0329C217.038 71.7609 216.238 71.4249 215.646 71.0249L216.894 68.3369C217.486 68.7049 218.182 69.0089 218.982 69.2489C219.798 69.4729 220.598 69.5849 221.382 69.5849C222.246 69.5849 222.854 69.4809 223.206 69.2729C223.574 69.0649 223.758 68.7769 223.758 68.4089C223.758 68.1049 223.614 67.8809 223.326 67.7369C223.054 67.5769 222.686 67.4569 222.222 67.3769C221.758 67.2969 221.246 67.2169 220.686 67.1369C220.142 67.0569 219.59 66.9529 219.03 66.8249C218.47 66.6809 217.958 66.4729 217.494 66.2009C217.03 65.9289 216.654 65.5609 216.366 65.0969C216.094 64.6329 215.958 64.0329 215.958 63.2969C215.958 62.4809 216.19 61.7609 216.654 61.1369C217.134 60.5129 217.822 60.0249 218.718 59.6729C219.614 59.3049 220.686 59.1209 221.934 59.1209C222.814 59.1209 223.71 59.2169 224.622 59.4089C225.534 59.6009 226.294 59.8809 226.902 60.2489L225.654 62.9129C225.03 62.5449 224.398 62.2969 223.758 62.1689C223.134 62.0249 222.526 61.9529 221.934 61.9529C221.102 61.9529 220.494 62.0649 220.11 62.2889C219.726 62.5129 219.534 62.8009 219.534 63.1529C219.534 63.4729 219.67 63.7129 219.942 63.8729C220.23 64.0329 220.606 64.1609 221.07 64.2569C221.534 64.3529 222.038 64.4409 222.582 64.5209C223.142 64.5849 223.702 64.6889 224.262 64.8329C224.822 64.9769 225.326 65.1849 225.774 65.4569C226.238 65.7129 226.614 66.0729 226.902 66.5369C227.19 66.9849 227.334 67.5769 227.334 68.3129C227.334 69.1129 227.094 69.8249 226.614 70.4489C226.134 71.0569 225.438 71.5369 224.526 71.8889C223.63 72.2409 222.534 72.4169 221.238 72.4169Z" fill="black"/>
<rect x="307.01" y="37.7249" width="110" height="110" rx="55" fill="#F3E2D0"/>
<path opacity="0.3" d="M370.864 108.037L366.385 103.558V96.8916H368.468V102.704L372.322 106.558L370.864 108.037ZM367.426 88.5582C368.135 88.5582 368.822 88.6207 369.51 88.7249V78.1416H365.343V84.3916H348.676V78.1416H344.51V109.392H354.26C353.203 107.17 352.725 104.716 352.872 102.26C353.019 99.8043 353.786 97.4255 355.1 95.3456C356.415 93.2657 358.234 91.5525 360.39 90.3657C362.545 89.1789 364.966 88.5571 367.426 88.5582ZM357.01 78.1416C355.864 78.1416 354.926 77.2041 354.926 76.0582C354.926 74.9124 355.864 73.9749 357.01 73.9749C358.155 73.9749 359.093 74.9124 359.093 76.0582C359.093 77.2041 358.155 78.1416 357.01 78.1416Z" fill="#C67B30"/>
<path d="M365.343 92.7249C359.593 92.7249 354.926 97.3916 354.926 103.142C354.926 108.892 359.593 113.558 365.343 113.558C371.093 113.558 375.76 108.892 375.76 103.142C375.76 97.3916 371.093 92.7249 365.343 92.7249ZM368.78 108.037L364.301 103.558V96.8916H366.385V102.704L370.239 106.558L368.78 108.037ZM367.426 73.9749H360.801C359.926 71.5582 357.635 69.8082 354.926 69.8082C352.218 69.8082 349.926 71.5582 349.051 73.9749H342.426C340.135 73.9749 338.26 75.8499 338.26 78.1416V109.392C338.26 111.683 340.135 113.558 342.426 113.558H355.155C353.921 112.363 352.918 110.951 352.197 109.392H342.426V78.1416H346.593V84.3916H363.26V78.1416H367.426V88.7249C368.905 88.9332 370.301 89.3707 371.593 89.9749V78.1416C371.593 75.8499 369.718 73.9749 367.426 73.9749ZM354.926 78.1416C353.78 78.1416 352.843 77.2041 352.843 76.0582C352.843 74.9124 353.78 73.9749 354.926 73.9749C356.072 73.9749 357.01 74.9124 357.01 76.0582C357.01 77.2041 356.072 78.1416 354.926 78.1416Z" fill="#C67B30"/>
</svg>
