<svg width="476" height="207" viewBox="0 0 476 207" fill="none" xmlns="http://www.w3.org/2000/svg">
<rect x="0.00952148" y="0.887024" width="475.99" height="206" rx="15" fill="white"/>
<rect x="0.00952148" y="0.887024" width="20" height="206" rx="10" fill="#9CAF88"/>
<path d="M89.5775 65.355H97.6655V68.379H89.5775V65.355ZM89.8655 72.267H99.0095V75.387H86.0015V58.587H98.6975V61.707H89.8655V72.267ZM105.226 75.387L99.8019 62.475H103.666L108.178 73.587H106.258L110.938 62.475H114.538L109.09 75.387H105.226ZM122.122 75.579C120.65 75.579 119.354 75.291 118.234 74.715C117.13 74.139 116.274 73.355 115.666 72.363C115.058 71.355 114.754 70.211 114.754 68.931C114.754 67.635 115.05 66.491 115.642 65.499C116.25 64.491 117.074 63.707 118.114 63.147C119.154 62.571 120.33 62.283 121.642 62.283C122.906 62.283 124.042 62.555 125.05 63.099C126.074 63.627 126.882 64.395 127.474 65.403C128.066 66.395 128.362 67.587 128.362 68.979C128.362 69.123 128.354 69.291 128.338 69.483C128.322 69.659 128.306 69.827 128.29 69.987H117.802V67.803H126.322L124.882 68.451C124.882 67.779 124.746 67.195 124.474 66.699C124.202 66.203 123.826 65.819 123.346 65.547C122.866 65.259 122.306 65.115 121.666 65.115C121.026 65.115 120.458 65.259 119.962 65.547C119.482 65.819 119.106 66.211 118.834 66.723C118.562 67.219 118.426 67.811 118.426 68.499V69.075C118.426 69.779 118.578 70.403 118.882 70.947C119.202 71.475 119.642 71.883 120.202 72.171C120.778 72.443 121.45 72.579 122.218 72.579C122.906 72.579 123.506 72.475 124.018 72.267C124.546 72.059 125.026 71.747 125.458 71.331L127.45 73.491C126.858 74.163 126.114 74.683 125.218 75.051C124.322 75.403 123.29 75.579 122.122 75.579ZM138.703 62.283C139.727 62.283 140.639 62.491 141.439 62.907C142.255 63.307 142.895 63.931 143.359 64.779C143.823 65.611 144.055 66.683 144.055 67.995V75.387H140.311V68.571C140.311 67.531 140.079 66.763 139.615 66.267C139.167 65.771 138.527 65.523 137.695 65.523C137.103 65.523 136.567 65.651 136.087 65.907C135.623 66.147 135.255 66.523 134.983 67.035C134.727 67.547 134.599 68.203 134.599 69.003V75.387H130.855V62.475H134.431V66.051L133.759 64.971C134.223 64.107 134.887 63.443 135.751 62.979C136.615 62.515 137.599 62.283 138.703 62.283ZM152.728 75.579C151.208 75.579 150.024 75.195 149.176 74.427C148.328 73.643 147.904 72.483 147.904 70.947V59.619H151.648V70.899C151.648 71.443 151.792 71.867 152.08 72.171C152.368 72.459 152.76 72.603 153.256 72.603C153.848 72.603 154.352 72.443 154.768 72.123L155.776 74.763C155.392 75.035 154.928 75.243 154.384 75.387C153.856 75.515 153.304 75.579 152.728 75.579ZM145.912 65.643V62.763H154.864V65.643H145.912ZM162.731 75.387L170.219 58.587H174.059L181.571 75.387H177.491L171.347 60.555H172.883L166.715 75.387H162.731ZM166.475 71.787L167.507 68.835H176.147L177.203 71.787H166.475ZM186.146 72.747L186.242 68.187L192.266 62.475H196.73L190.946 68.355L189.002 69.939L186.146 72.747ZM183.05 75.387V57.579H186.794V75.387H183.05ZM192.674 75.387L188.306 69.963L190.658 67.059L197.21 75.387H192.674ZM204.174 75.579C202.654 75.579 201.47 75.195 200.622 74.427C199.774 73.643 199.35 72.483 199.35 70.947V59.619H203.094V70.899C203.094 71.443 203.238 71.867 203.526 72.171C203.814 72.459 204.206 72.603 204.702 72.603C205.294 72.603 205.798 72.443 206.214 72.123L207.222 74.763C206.838 75.035 206.374 75.243 205.83 75.387C205.302 75.515 204.75 75.579 204.174 75.579ZM197.358 65.643V62.763H206.31V65.643H197.358ZM209.323 75.387V62.475H213.067V75.387H209.323ZM211.195 60.675C210.507 60.675 209.947 60.475 209.515 60.075C209.083 59.675 208.867 59.179 208.867 58.587C208.867 57.995 209.083 57.499 209.515 57.099C209.947 56.699 210.507 56.499 211.195 56.499C211.883 56.499 212.443 56.691 212.875 57.075C213.307 57.443 213.523 57.923 213.523 58.515C213.523 59.139 213.307 59.659 212.875 60.075C212.459 60.475 211.899 60.675 211.195 60.675ZM216.998 75.387V62.187C216.998 60.731 217.43 59.571 218.294 58.707C219.158 57.827 220.39 57.387 221.99 57.387C222.534 57.387 223.054 57.443 223.55 57.555C224.062 57.667 224.494 57.843 224.846 58.083L223.862 60.795C223.654 60.651 223.422 60.539 223.166 60.459C222.91 60.379 222.638 60.339 222.35 60.339C221.806 60.339 221.382 60.499 221.078 60.819C220.79 61.123 220.646 61.587 220.646 62.211V63.411L220.742 65.019V75.387H216.998ZM215.006 65.643V62.763H223.958V65.643H215.006Z" fill="black"/>
<rect x="322.01" y="40.887" width="110" height="110" rx="55" fill="#DEE4D7"/>
<g clip-path="url(#clip0_154_259)">
<path d="M377.01 120.887C383.64 120.887 389.999 118.253 394.687 113.565C399.376 108.876 402.01 102.517 402.01 95.887C402.01 89.2566 399.376 82.8978 394.687 78.2094C389.999 73.5209 383.64 70.887 377.01 70.887C370.379 70.887 364.021 73.5209 359.332 78.2094C354.644 82.8978 352.01 89.2566 352.01 95.887C352.01 102.517 354.644 108.876 359.332 113.565C364.021 118.253 370.379 120.887 377.01 120.887ZM377.01 75.5745C382.397 75.5745 387.564 77.7146 391.373 81.5239C395.182 85.3333 397.322 90.4998 397.322 95.887C397.322 101.274 395.182 106.441 391.373 110.25C387.564 114.059 382.397 116.2 377.01 116.2C371.623 116.2 366.456 114.059 362.647 110.25C358.837 106.441 356.697 101.274 356.697 95.887C356.697 90.4998 358.837 85.3333 362.647 81.5239C366.456 77.7146 371.623 75.5745 377.01 75.5745ZM388.422 100.262L389.519 104.012L368.182 110.262L367.085 106.512L388.422 100.262ZM364.51 86.512C364.51 85.6832 364.839 84.8884 365.425 84.3023C366.011 83.7163 366.806 83.387 367.635 83.387C368.464 83.387 369.258 83.7163 369.844 84.3023C370.431 84.8884 370.76 85.6832 370.76 86.512C370.76 87.3408 370.431 88.1357 369.844 88.7217C369.258 89.3078 368.464 89.637 367.635 89.637C366.806 89.637 366.011 89.3078 365.425 88.7217C364.839 88.1357 364.51 87.3408 364.51 86.512ZM383.26 86.512C383.26 85.6832 383.589 84.8884 384.175 84.3023C384.761 83.7163 385.556 83.387 386.385 83.387C387.214 83.387 388.008 83.7163 388.594 84.3023C389.181 84.8884 389.51 85.6832 389.51 86.512C389.51 87.3408 389.181 88.1357 388.594 88.7217C388.008 89.3078 387.214 89.637 386.385 89.637C385.556 89.637 384.761 89.3078 384.175 88.7217C383.589 88.1357 383.26 87.3408 383.26 86.512Z" fill="#63764F"/>
</g>
<defs>
<clipPath id="clip0_154_259">
<rect width="50" height="50" fill="white" transform="translate(352.01 70.887)"/>
</clipPath>
</defs>
</svg>
