<svg width="133" height="40" viewBox="0 0 133 40" fill="none" xmlns="http://www.w3.org/2000/svg">
<rect width="133" height="40" rx="15" fill="url(#paint0_linear_78_246)"/>
<path d="M36.9878 27.3919C35.8945 27.3919 34.8478 27.2386 33.8478 26.9319C32.8478 26.6119 32.0545 26.2052 31.4678 25.7119L32.3678 23.6919C32.9278 24.1319 33.6212 24.4986 34.4478 24.7919C35.2745 25.0852 36.1212 25.2319 36.9878 25.2319C37.7212 25.2319 38.3145 25.1519 38.7678 24.9919C39.2212 24.8319 39.5545 24.6186 39.7678 24.3519C39.9812 24.0719 40.0878 23.7586 40.0878 23.4119C40.0878 22.9852 39.9345 22.6452 39.6278 22.3919C39.3212 22.1252 38.9212 21.9186 38.4278 21.7719C37.9478 21.6119 37.4078 21.4652 36.8078 21.3319C36.2212 21.1986 35.6278 21.0452 35.0278 20.8719C34.4412 20.6852 33.9012 20.4519 33.4078 20.1719C32.9278 19.8786 32.5345 19.4919 32.2278 19.0119C31.9212 18.5319 31.7678 17.9186 31.7678 17.1719C31.7678 16.4119 31.9678 15.7186 32.3678 15.0919C32.7812 14.4519 33.4012 13.9452 34.2278 13.5719C35.0678 13.1852 36.1278 12.9919 37.4078 12.9919C38.2478 12.9919 39.0812 13.0986 39.9078 13.3119C40.7345 13.5252 41.4545 13.8319 42.0678 14.2319L41.2478 16.2519C40.6212 15.8786 39.9745 15.6052 39.3078 15.4319C38.6412 15.2452 38.0012 15.1519 37.3878 15.1519C36.6678 15.1519 36.0812 15.2386 35.6278 15.4119C35.1878 15.5852 34.8612 15.8119 34.6478 16.0919C34.4478 16.3719 34.3478 16.6919 34.3478 17.0519C34.3478 17.4786 34.4945 17.8252 34.7878 18.0919C35.0945 18.3452 35.4878 18.5452 35.9678 18.6919C36.4612 18.8386 37.0078 18.9852 37.6078 19.1319C38.2078 19.2652 38.8012 19.4186 39.3878 19.5919C39.9878 19.7652 40.5278 19.9919 41.0078 20.2719C41.5012 20.5519 41.8945 20.9319 42.1878 21.4119C42.4945 21.8919 42.6478 22.4986 42.6478 23.2319C42.6478 23.9786 42.4412 24.6719 42.0278 25.3119C41.6278 25.9386 41.0078 26.4452 40.1678 26.8319C39.3278 27.2052 38.2678 27.3919 36.9878 27.3919ZM50.0059 27.3319C48.8193 27.3319 47.7793 27.0986 46.8859 26.6319C46.0059 26.1519 45.3193 25.4986 44.8259 24.6719C44.3459 23.8452 44.1059 22.9052 44.1059 21.8519C44.1059 20.7852 44.3393 19.8452 44.8059 19.0319C45.2859 18.2052 45.9393 17.5586 46.7659 17.0919C47.6059 16.6252 48.5593 16.3919 49.6259 16.3919C50.6659 16.3919 51.5926 16.6186 52.4059 17.0719C53.2193 17.5252 53.8593 18.1652 54.3259 18.9919C54.7926 19.8186 55.0259 20.7919 55.0259 21.9119C55.0259 22.0186 55.0193 22.1386 55.0059 22.2719C55.0059 22.4052 54.9993 22.5319 54.9859 22.6519H46.0859V20.9919H53.6659L52.6859 21.5119C52.6993 20.8986 52.5726 20.3586 52.3059 19.8919C52.0393 19.4252 51.6726 19.0586 51.2059 18.7919C50.7526 18.5252 50.2259 18.3919 49.6259 18.3919C49.0126 18.3919 48.4726 18.5252 48.0059 18.7919C47.5526 19.0586 47.1926 19.4319 46.9259 19.9119C46.6726 20.3786 46.5459 20.9319 46.5459 21.5719V21.9719C46.5459 22.6119 46.6926 23.1786 46.9859 23.6719C47.2793 24.1652 47.6926 24.5452 48.2259 24.8119C48.7593 25.0786 49.3726 25.2119 50.0659 25.2119C50.6659 25.2119 51.2059 25.1186 51.6859 24.9319C52.1659 24.7452 52.5926 24.4519 52.9659 24.0519L54.3059 25.5919C53.8259 26.1519 53.2193 26.5852 52.4859 26.8919C51.7659 27.1852 50.9393 27.3319 50.0059 27.3319ZM57.4274 27.1919V12.3519H59.9274V27.1919H57.4274ZM68.2286 27.3319C67.0419 27.3319 66.0019 27.0986 65.1086 26.6319C64.2286 26.1519 63.5419 25.4986 63.0486 24.6719C62.5686 23.8452 62.3286 22.9052 62.3286 21.8519C62.3286 20.7852 62.5619 19.8452 63.0286 19.0319C63.5086 18.2052 64.1619 17.5586 64.9886 17.0919C65.8286 16.6252 66.7819 16.3919 67.8486 16.3919C68.8886 16.3919 69.8153 16.6186 70.6286 17.0719C71.4419 17.5252 72.0819 18.1652 72.5486 18.9919C73.0153 19.8186 73.2486 20.7919 73.2486 21.9119C73.2486 22.0186 73.2419 22.1386 73.2286 22.2719C73.2286 22.4052 73.2219 22.5319 73.2086 22.6519H64.3086V20.9919H71.8886L70.9086 21.5119C70.9219 20.8986 70.7953 20.3586 70.5286 19.8919C70.2619 19.4252 69.8953 19.0586 69.4286 18.7919C68.9753 18.5252 68.4486 18.3919 67.8486 18.3919C67.2353 18.3919 66.6953 18.5252 66.2286 18.7919C65.7753 19.0586 65.4153 19.4319 65.1486 19.9119C64.8953 20.3786 64.7686 20.9319 64.7686 21.5719V21.9719C64.7686 22.6119 64.9153 23.1786 65.2086 23.6719C65.5019 24.1652 65.9153 24.5452 66.4486 24.8119C66.9819 25.0786 67.5953 25.2119 68.2886 25.2119C68.8886 25.2119 69.4286 25.1186 69.9086 24.9319C70.3886 24.7452 70.8153 24.4519 71.1886 24.0519L72.5286 25.5919C72.0486 26.1519 71.4419 26.5852 70.7086 26.8919C69.9886 27.1852 69.1619 27.3319 68.2286 27.3319ZM78.95 27.3319C78.0567 27.3319 77.1967 27.2186 76.37 26.9919C75.5567 26.7519 74.91 26.4652 74.43 26.1319L75.39 24.2319C75.87 24.5386 76.4433 24.7919 77.11 24.9919C77.7767 25.1919 78.4433 25.2919 79.11 25.2919C79.8967 25.2919 80.4633 25.1852 80.81 24.9719C81.17 24.7586 81.35 24.4719 81.35 24.1119C81.35 23.8186 81.23 23.5986 80.99 23.4519C80.75 23.2919 80.4367 23.1719 80.05 23.0919C79.6633 23.0119 79.23 22.9386 78.75 22.8719C78.2833 22.8052 77.81 22.7186 77.33 22.6119C76.8633 22.4919 76.4367 22.3252 76.05 22.1119C75.6633 21.8852 75.35 21.5852 75.11 21.2119C74.87 20.8386 74.75 20.3452 74.75 19.7319C74.75 19.0519 74.9433 18.4652 75.33 17.9719C75.7167 17.4652 76.2567 17.0786 76.95 16.8119C77.6567 16.5319 78.49 16.3919 79.45 16.3919C80.17 16.3919 80.8967 16.4719 81.63 16.6319C82.3633 16.7919 82.97 17.0186 83.45 17.3119L82.49 19.2119C81.9833 18.9052 81.47 18.6986 80.95 18.5919C80.4433 18.4719 79.9367 18.4119 79.43 18.4119C78.67 18.4119 78.1033 18.5252 77.73 18.7519C77.37 18.9786 77.19 19.2652 77.19 19.6119C77.19 19.9319 77.31 20.1719 77.55 20.3319C77.79 20.4919 78.1033 20.6186 78.49 20.7119C78.8767 20.8052 79.3033 20.8852 79.77 20.9519C80.25 21.0052 80.7233 21.0919 81.19 21.2119C81.6567 21.3319 82.0833 21.4986 82.47 21.7119C82.87 21.9119 83.19 22.1986 83.43 22.5719C83.67 22.9452 83.79 23.4319 83.79 24.0319C83.79 24.6986 83.59 25.2786 83.19 25.7719C82.8033 26.2652 82.25 26.6519 81.53 26.9319C80.81 27.1986 79.95 27.3319 78.95 27.3319ZM92.523 27.1919V25.0319L92.383 24.5719V20.7919C92.383 20.0586 92.163 19.4919 91.723 19.0919C91.283 18.6786 90.6163 18.4719 89.723 18.4719C89.123 18.4719 88.5296 18.5652 87.943 18.7519C87.3696 18.9386 86.883 19.1986 86.483 19.5319L85.503 17.7119C86.0763 17.2719 86.7563 16.9452 87.543 16.7319C88.343 16.5052 89.1696 16.3919 90.023 16.3919C91.5696 16.3919 92.763 16.7652 93.603 17.5119C94.4563 18.2452 94.883 19.3852 94.883 20.9319V27.1919H92.523ZM89.163 27.3319C88.363 27.3319 87.663 27.1986 87.063 26.9319C86.463 26.6519 85.9963 26.2719 85.663 25.7919C85.343 25.2986 85.183 24.7452 85.183 24.1319C85.183 23.5319 85.323 22.9919 85.603 22.5119C85.8963 22.0319 86.3696 21.6519 87.023 21.3719C87.6763 21.0919 88.543 20.9519 89.623 20.9519H92.723V22.6119H89.803C88.9496 22.6119 88.3763 22.7519 88.083 23.0319C87.7896 23.2986 87.643 23.6319 87.643 24.0319C87.643 24.4852 87.823 24.8452 88.183 25.1119C88.543 25.3786 89.043 25.5119 89.683 25.5119C90.2963 25.5119 90.843 25.3719 91.323 25.0919C91.8163 24.8119 92.1696 24.3986 92.383 23.8519L92.803 25.3519C92.563 25.9786 92.1296 26.4652 91.503 26.8119C90.8896 27.1586 90.1096 27.3319 89.163 27.3319ZM98.0914 27.1919V16.5119H100.591V27.1919H98.0914ZM99.3514 14.7519C98.8847 14.7519 98.4981 14.6052 98.1914 14.3119C97.8981 14.0186 97.7514 13.6652 97.7514 13.2519C97.7514 12.8252 97.8981 12.4719 98.1914 12.1919C98.4981 11.8986 98.8847 11.7519 99.3514 11.7519C99.8181 11.7519 100.198 11.8919 100.491 12.1719C100.798 12.4386 100.951 12.7786 100.951 13.1919C100.951 13.6319 100.805 14.0052 100.511 14.3119C100.218 14.6052 99.8314 14.7519 99.3514 14.7519Z" fill="white"/>
<defs>
<linearGradient id="paint0_linear_78_246" x1="59.8337" y1="10.1968" x2="78.6184" y2="47.1539" gradientUnits="userSpaceOnUse">
<stop stop-color="#6B8CAE"/>
<stop offset="1" stop-color="#9CAF88"/>
</linearGradient>
</defs>
</svg>
