<svg width="165" height="40" viewBox="0 0 165 40" fill="none" xmlns="http://www.w3.org/2000/svg">
<rect width="165" height="40" rx="15" fill="url(#paint0_linear_78_258)"/>
<path d="M11.8314 27.1919V13.1919H18.3914C20.0714 13.1919 21.3514 13.5252 22.2314 14.1919C23.1114 14.8452 23.5514 15.7252 23.5514 16.8319C23.5514 17.5786 23.3781 18.2186 23.0314 18.7519C22.6847 19.2719 22.2181 19.6786 21.6314 19.9719C21.0581 20.2519 20.4314 20.3919 19.7514 20.3919L20.1114 19.6719C20.8981 19.6719 21.6047 19.8186 22.2314 20.1119C22.8581 20.3919 23.3514 20.8052 23.7114 21.3519C24.0847 21.8986 24.2714 22.5786 24.2714 23.3919C24.2714 24.5919 23.8114 25.5252 22.8914 26.1919C21.9714 26.8586 20.6047 27.1919 18.7914 27.1919H11.8314ZM14.4314 25.1519H18.6314C19.6047 25.1519 20.3514 24.9919 20.8714 24.6719C21.3914 24.3519 21.6514 23.8386 21.6514 23.1319C21.6514 22.4386 21.3914 21.9319 20.8714 21.6119C20.3514 21.2786 19.6047 21.1119 18.6314 21.1119H14.2314V19.0919H18.1114C19.0181 19.0919 19.7114 18.9319 20.1914 18.6119C20.6847 18.2919 20.9314 17.8119 20.9314 17.1719C20.9314 16.5186 20.6847 16.0319 20.1914 15.7119C19.7114 15.3919 19.0181 15.2319 18.1114 15.2319H14.4314V25.1519ZM31.8263 27.3319C30.6396 27.3319 29.5996 27.0986 28.7063 26.6319C27.8263 26.1519 27.1396 25.4986 26.6463 24.6719C26.1663 23.8452 25.9263 22.9052 25.9263 21.8519C25.9263 20.7852 26.1596 19.8452 26.6263 19.0319C27.1063 18.2052 27.7596 17.5586 28.5863 17.0919C29.4263 16.6252 30.3796 16.3919 31.4463 16.3919C32.4863 16.3919 33.4129 16.6186 34.2263 17.0719C35.0396 17.5252 35.6796 18.1652 36.1463 18.9919C36.6129 19.8186 36.8463 20.7919 36.8463 21.9119C36.8463 22.0186 36.8396 22.1386 36.8263 22.2719C36.8263 22.4052 36.8196 22.5319 36.8063 22.6519H27.9063V20.9919H35.4863L34.5063 21.5119C34.5196 20.8986 34.3929 20.3586 34.1263 19.8919C33.8596 19.4252 33.4929 19.0586 33.0263 18.7919C32.5729 18.5252 32.0463 18.3919 31.4463 18.3919C30.8329 18.3919 30.2929 18.5252 29.8263 18.7919C29.3729 19.0586 29.0129 19.4319 28.7463 19.9119C28.4929 20.3786 28.3663 20.9319 28.3663 21.5719V21.9719C28.3663 22.6119 28.5129 23.1786 28.8063 23.6719C29.0996 24.1652 29.5129 24.5452 30.0463 24.8119C30.5796 25.0786 31.1929 25.2119 31.8863 25.2119C32.4863 25.2119 33.0263 25.1186 33.5063 24.9319C33.9863 24.7452 34.4129 24.4519 34.7863 24.0519L36.1263 25.5919C35.6463 26.1519 35.0396 26.5852 34.3063 26.8919C33.5863 27.1852 32.7596 27.3319 31.8263 27.3319ZM39.2477 27.1919V12.3519H41.7477V27.1919H39.2477ZM49.5489 27.3319C48.6422 27.3319 47.8422 27.1652 47.1489 26.8319C46.4556 26.4852 45.9156 25.9652 45.5289 25.2719C45.1422 24.5652 44.9489 23.6786 44.9489 22.6119V16.5119H47.4489V22.2719C47.4489 23.2319 47.6622 23.9519 48.0889 24.4319C48.5289 24.8986 49.1489 25.1319 49.9489 25.1319C50.5356 25.1319 51.0422 25.0119 51.4689 24.7719C51.9089 24.5319 52.2489 24.1719 52.4889 23.6919C52.7422 23.2119 52.8689 22.6186 52.8689 21.9119V16.5119H55.3689V27.1919H52.9889V24.3119L53.4089 25.1919C53.0489 25.8852 52.5222 26.4186 51.8289 26.7919C51.1356 27.1519 50.3756 27.3319 49.5489 27.3319ZM72.1222 16.3919C72.9755 16.3919 73.7289 16.5586 74.3822 16.8919C75.0489 17.2252 75.5689 17.7386 75.9422 18.4319C76.3155 19.1119 76.5022 19.9919 76.5022 21.0719V27.1919H74.0022V21.3919C74.0022 20.4452 73.7955 19.7386 73.3822 19.2719C72.9689 18.8052 72.3755 18.5719 71.6022 18.5719C71.0555 18.5719 70.5689 18.6919 70.1422 18.9319C69.7289 19.1719 69.4022 19.5252 69.1622 19.9919C68.9355 20.4586 68.8222 21.0519 68.8222 21.7719V27.1919H66.3222V21.3919C66.3222 20.4452 66.1155 19.7386 65.7022 19.2719C65.2889 18.8052 64.6955 18.5719 63.9222 18.5719C63.3755 18.5719 62.8889 18.6919 62.4622 18.9319C62.0489 19.1719 61.7222 19.5252 61.4822 19.9919C61.2555 20.4586 61.1422 21.0519 61.1422 21.7719V27.1919H58.6422V16.5119H61.0222V19.3519L60.6022 18.5119C60.9622 17.8186 61.4822 17.2919 62.1622 16.9319C62.8555 16.5719 63.6422 16.3919 64.5222 16.3919C65.5222 16.3919 66.3889 16.6386 67.1222 17.1319C67.8689 17.6252 68.3622 18.3719 68.6022 19.3719L67.6222 19.0319C67.9689 18.2319 68.5422 17.5919 69.3422 17.1119C70.1422 16.6319 71.0689 16.3919 72.1222 16.3919ZM89.8042 27.3919C88.7109 27.3919 87.6642 27.2386 86.6642 26.9319C85.6642 26.6119 84.8709 26.2052 84.2842 25.7119L85.1842 23.6919C85.7442 24.1319 86.4376 24.4986 87.2642 24.7919C88.0909 25.0852 88.9376 25.2319 89.8042 25.2319C90.5376 25.2319 91.1309 25.1519 91.5842 24.9919C92.0376 24.8319 92.3709 24.6186 92.5842 24.3519C92.7976 24.0719 92.9042 23.7586 92.9042 23.4119C92.9042 22.9852 92.7509 22.6452 92.4442 22.3919C92.1376 22.1252 91.7376 21.9186 91.2442 21.7719C90.7642 21.6119 90.2242 21.4652 89.6242 21.3319C89.0376 21.1986 88.4442 21.0452 87.8442 20.8719C87.2576 20.6852 86.7176 20.4519 86.2242 20.1719C85.7442 19.8786 85.3509 19.4919 85.0442 19.0119C84.7376 18.5319 84.5842 17.9186 84.5842 17.1719C84.5842 16.4119 84.7842 15.7186 85.1842 15.0919C85.5976 14.4519 86.2176 13.9452 87.0442 13.5719C87.8842 13.1852 88.9442 12.9919 90.2242 12.9919C91.0642 12.9919 91.8976 13.0986 92.7242 13.3119C93.5509 13.5252 94.2709 13.8319 94.8842 14.2319L94.0642 16.2519C93.4376 15.8786 92.7909 15.6052 92.1242 15.4319C91.4576 15.2452 90.8176 15.1519 90.2042 15.1519C89.4842 15.1519 88.8976 15.2386 88.4442 15.4119C88.0042 15.5852 87.6776 15.8119 87.4642 16.0919C87.2642 16.3719 87.1642 16.6919 87.1642 17.0519C87.1642 17.4786 87.3109 17.8252 87.6042 18.0919C87.9109 18.3452 88.3042 18.5452 88.7842 18.6919C89.2776 18.8386 89.8242 18.9852 90.4242 19.1319C91.0242 19.2652 91.6176 19.4186 92.2042 19.5919C92.8042 19.7652 93.3442 19.9919 93.8242 20.2719C94.3176 20.5519 94.7109 20.9319 95.0042 21.4119C95.3109 21.8919 95.4642 22.4986 95.4642 23.2319C95.4642 23.9786 95.2576 24.6719 94.8442 25.3119C94.4442 25.9386 93.8242 26.4452 92.9842 26.8319C92.1442 27.2052 91.0842 27.3919 89.8042 27.3919ZM102.822 27.3319C101.636 27.3319 100.596 27.0986 99.7024 26.6319C98.8224 26.1519 98.1357 25.4986 97.6424 24.6719C97.1624 23.8452 96.9224 22.9052 96.9224 21.8519C96.9224 20.7852 97.1557 19.8452 97.6224 19.0319C98.1024 18.2052 98.7557 17.5586 99.5824 17.0919C100.422 16.6252 101.376 16.3919 102.442 16.3919C103.482 16.3919 104.409 16.6186 105.222 17.0719C106.036 17.5252 106.676 18.1652 107.142 18.9919C107.609 19.8186 107.842 20.7919 107.842 21.9119C107.842 22.0186 107.836 22.1386 107.822 22.2719C107.822 22.4052 107.816 22.5319 107.802 22.6519H98.9024V20.9919H106.482L105.502 21.5119C105.516 20.8986 105.389 20.3586 105.122 19.8919C104.856 19.4252 104.489 19.0586 104.022 18.7919C103.569 18.5252 103.042 18.3919 102.442 18.3919C101.829 18.3919 101.289 18.5252 100.822 18.7919C100.369 19.0586 100.009 19.4319 99.7424 19.9119C99.489 20.3786 99.3624 20.9319 99.3624 21.5719V21.9719C99.3624 22.6119 99.509 23.1786 99.8024 23.6719C100.096 24.1652 100.509 24.5452 101.042 24.8119C101.576 25.0786 102.189 25.2119 102.882 25.2119C103.482 25.2119 104.022 25.1186 104.502 24.9319C104.982 24.7452 105.409 24.4519 105.782 24.0519L107.122 25.5919C106.642 26.1519 106.036 26.5852 105.302 26.8919C104.582 27.1852 103.756 27.3319 102.822 27.3319ZM110.244 27.1919V12.3519H112.744V27.1919H110.244ZM121.045 27.3319C119.858 27.3319 118.818 27.0986 117.925 26.6319C117.045 26.1519 116.358 25.4986 115.865 24.6719C115.385 23.8452 115.145 22.9052 115.145 21.8519C115.145 20.7852 115.378 19.8452 115.845 19.0319C116.325 18.2052 116.978 17.5586 117.805 17.0919C118.645 16.6252 119.598 16.3919 120.665 16.3919C121.705 16.3919 122.632 16.6186 123.445 17.0719C124.258 17.5252 124.898 18.1652 125.365 18.9919C125.832 19.8186 126.065 20.7919 126.065 21.9119C126.065 22.0186 126.058 22.1386 126.045 22.2719C126.045 22.4052 126.038 22.5319 126.025 22.6519H117.125V20.9919H124.705L123.725 21.5119C123.738 20.8986 123.612 20.3586 123.345 19.8919C123.078 19.4252 122.712 19.0586 122.245 18.7919C121.792 18.5252 121.265 18.3919 120.665 18.3919C120.052 18.3919 119.512 18.5252 119.045 18.7919C118.592 19.0586 118.232 19.4319 117.965 19.9119C117.712 20.3786 117.585 20.9319 117.585 21.5719V21.9719C117.585 22.6119 117.732 23.1786 118.025 23.6719C118.318 24.1652 118.732 24.5452 119.265 24.8119C119.798 25.0786 120.412 25.2119 121.105 25.2119C121.705 25.2119 122.245 25.1186 122.725 24.9319C123.205 24.7452 123.632 24.4519 124.005 24.0519L125.345 25.5919C124.865 26.1519 124.258 26.5852 123.525 26.8919C122.805 27.1852 121.978 27.3319 121.045 27.3319ZM131.766 27.3319C130.873 27.3319 130.013 27.2186 129.186 26.9919C128.373 26.7519 127.726 26.4652 127.246 26.1319L128.206 24.2319C128.686 24.5386 129.26 24.7919 129.926 24.9919C130.593 25.1919 131.26 25.2919 131.926 25.2919C132.713 25.2919 133.28 25.1852 133.626 24.9719C133.986 24.7586 134.166 24.4719 134.166 24.1119C134.166 23.8186 134.046 23.5986 133.806 23.4519C133.566 23.2919 133.253 23.1719 132.866 23.0919C132.48 23.0119 132.046 22.9386 131.566 22.8719C131.1 22.8052 130.626 22.7186 130.146 22.6119C129.68 22.4919 129.253 22.3252 128.866 22.1119C128.48 21.8852 128.166 21.5852 127.926 21.2119C127.686 20.8386 127.566 20.3452 127.566 19.7319C127.566 19.0519 127.76 18.4652 128.146 17.9719C128.533 17.4652 129.073 17.0786 129.766 16.8119C130.473 16.5319 131.306 16.3919 132.266 16.3919C132.986 16.3919 133.713 16.4719 134.446 16.6319C135.18 16.7919 135.786 17.0186 136.266 17.3119L135.306 19.2119C134.8 18.9052 134.286 18.6986 133.766 18.5919C133.26 18.4719 132.753 18.4119 132.246 18.4119C131.486 18.4119 130.92 18.5252 130.546 18.7519C130.186 18.9786 130.006 19.2652 130.006 19.6119C130.006 19.9319 130.126 20.1719 130.366 20.3319C130.606 20.4919 130.92 20.6186 131.306 20.7119C131.693 20.8052 132.12 20.8852 132.586 20.9519C133.066 21.0052 133.54 21.0919 134.006 21.2119C134.473 21.3319 134.9 21.4986 135.286 21.7119C135.686 21.9119 136.006 22.1986 136.246 22.5719C136.486 22.9452 136.606 23.4319 136.606 24.0319C136.606 24.6986 136.406 25.2786 136.006 25.7719C135.62 26.2652 135.066 26.6519 134.346 26.9319C133.626 27.1986 132.766 27.3319 131.766 27.3319ZM145.339 27.1919V25.0319L145.199 24.5719V20.7919C145.199 20.0586 144.979 19.4919 144.539 19.0919C144.099 18.6786 143.433 18.4719 142.539 18.4719C141.939 18.4719 141.346 18.5652 140.759 18.7519C140.186 18.9386 139.699 19.1986 139.299 19.5319L138.319 17.7119C138.893 17.2719 139.573 16.9452 140.359 16.7319C141.159 16.5052 141.986 16.3919 142.839 16.3919C144.386 16.3919 145.579 16.7652 146.419 17.5119C147.273 18.2452 147.699 19.3852 147.699 20.9319V27.1919H145.339ZM141.979 27.3319C141.179 27.3319 140.479 27.1986 139.879 26.9319C139.279 26.6519 138.813 26.2719 138.479 25.7919C138.159 25.2986 137.999 24.7452 137.999 24.1319C137.999 23.5319 138.139 22.9919 138.419 22.5119C138.713 22.0319 139.186 21.6519 139.839 21.3719C140.493 21.0919 141.359 20.9519 142.439 20.9519H145.539V22.6119H142.619C141.766 22.6119 141.193 22.7519 140.899 23.0319C140.606 23.2986 140.459 23.6319 140.459 24.0319C140.459 24.4852 140.639 24.8452 140.999 25.1119C141.359 25.3786 141.859 25.5119 142.499 25.5119C143.113 25.5119 143.659 25.3719 144.139 25.0919C144.633 24.8119 144.986 24.3986 145.199 23.8519L145.619 25.3519C145.379 25.9786 144.946 26.4652 144.319 26.8119C143.706 27.1586 142.926 27.3319 141.979 27.3319ZM150.908 27.1919V16.5119H153.408V27.1919H150.908ZM152.168 14.7519C151.701 14.7519 151.314 14.6052 151.008 14.3119C150.714 14.0186 150.568 13.6652 150.568 13.2519C150.568 12.8252 150.714 12.4719 151.008 12.1919C151.314 11.8986 151.701 11.7519 152.168 11.7519C152.634 11.7519 153.014 11.8919 153.308 12.1719C153.614 12.4386 153.768 12.7786 153.768 13.1919C153.768 13.6319 153.621 14.0052 153.328 14.3119C153.034 14.6052 152.648 14.7519 152.168 14.7519Z" fill="white"/>
<defs>
<linearGradient id="paint0_linear_78_258" x1="74.2298" y1="10.1968" x2="90.5446" y2="50.0175" gradientUnits="userSpaceOnUse">
<stop stop-color="#9CAF88"/>
<stop offset="1" stop-color="#6B8CAE"/>
</linearGradient>
</defs>
</svg>
