<svg width="215" height="51" viewBox="0 0 215 51" fill="none" xmlns="http://www.w3.org/2000/svg">
<path d="M42.28 33V19H47.98C49.4733 19 50.78 19.3 51.9 19.9C53.0333 20.4867 53.9133 21.3067 54.54 22.36C55.1667 23.4133 55.48 24.6267 55.48 26C55.48 27.3733 55.1667 28.5867 54.54 29.64C53.9133 30.6933 53.0333 31.52 51.9 32.12C50.78 32.7067 49.4733 33 47.98 33H42.28ZM43.76 31.72H47.9C49.14 31.72 50.2133 31.48 51.12 31C52.04 30.5067 52.7533 29.8333 53.26 28.98C53.7667 28.1133 54.02 27.12 54.02 26C54.02 24.8667 53.7667 23.8733 53.26 23.02C52.7533 22.1667 52.04 21.5 51.12 21.02C50.2133 20.5267 49.14 20.28 47.9 20.28H43.76V31.72ZM65.0834 33V30.68L65.0234 30.3V26.42C65.0234 25.5267 64.7701 24.84 64.2634 24.36C63.7701 23.88 63.0301 23.64 62.0434 23.64C61.3634 23.64 60.7168 23.7533 60.1034 23.98C59.4901 24.2067 58.9701 24.5067 58.5434 24.88L57.9034 23.82C58.4368 23.3667 59.0768 23.02 59.8234 22.78C60.5701 22.5267 61.3568 22.4 62.1834 22.4C63.5434 22.4 64.5901 22.74 65.3234 23.42C66.0701 24.0867 66.4434 25.1067 66.4434 26.48V33H65.0834ZM61.4634 33.1C60.6768 33.1 59.9901 32.9733 59.4034 32.72C58.8301 32.4533 58.3901 32.0933 58.0834 31.64C57.7768 31.1733 57.6234 30.64 57.6234 30.04C57.6234 29.4933 57.7501 29 58.0034 28.56C58.2701 28.1067 58.6968 27.7467 59.2834 27.48C59.8834 27.2 60.6834 27.06 61.6834 27.06H65.3034V28.12H61.7234C60.7101 28.12 60.0034 28.3 59.6034 28.66C59.2168 29.02 59.0234 29.4667 59.0234 30C59.0234 30.6 59.2568 31.08 59.7234 31.44C60.1901 31.8 60.8434 31.98 61.6834 31.98C62.4834 31.98 63.1701 31.8 63.7434 31.44C64.3301 31.0667 64.7568 30.5333 65.0234 29.84L65.3434 30.82C65.0768 31.5133 64.6101 32.0667 63.9434 32.48C63.2901 32.8933 62.4634 33.1 61.4634 33.1ZM70.3003 33V18.16H71.7203V33H70.3003ZM82.2514 33V30.68L82.1914 30.3V26.42C82.1914 25.5267 81.9381 24.84 81.4314 24.36C80.9381 23.88 80.1981 23.64 79.2114 23.64C78.5314 23.64 77.8847 23.7533 77.2714 23.98C76.6581 24.2067 76.1381 24.5067 75.7114 24.88L75.0714 23.82C75.6047 23.3667 76.2447 23.02 76.9914 22.78C77.7381 22.5267 78.5247 22.4 79.3514 22.4C80.7114 22.4 81.7581 22.74 82.4914 23.42C83.2381 24.0867 83.6114 25.1067 83.6114 26.48V33H82.2514ZM78.6314 33.1C77.8447 33.1 77.1581 32.9733 76.5714 32.72C75.9981 32.4533 75.5581 32.0933 75.2514 31.64C74.9447 31.1733 74.7914 30.64 74.7914 30.04C74.7914 29.4933 74.9181 29 75.1714 28.56C75.4381 28.1067 75.8647 27.7467 76.4514 27.48C77.0514 27.2 77.8514 27.06 78.8514 27.06H82.4714V28.12H78.8914C77.8781 28.12 77.1714 28.3 76.7714 28.66C76.3847 29.02 76.1914 29.4667 76.1914 30C76.1914 30.6 76.4247 31.08 76.8914 31.44C77.3581 31.8 78.0114 31.98 78.8514 31.98C79.6514 31.98 80.3381 31.8 80.9114 31.44C81.4981 31.0667 81.9247 30.5333 82.1914 29.84L82.5114 30.82C82.2447 31.5133 81.7781 32.0667 81.1114 32.48C80.4581 32.8933 79.6314 33.1 78.6314 33.1ZM100.588 22.4C101.442 22.4 102.182 22.5667 102.808 22.9C103.448 23.22 103.942 23.7133 104.288 24.38C104.648 25.0467 104.828 25.8867 104.828 26.9V33H103.408V27.04C103.408 25.9333 103.142 25.1 102.608 24.54C102.088 23.9667 101.348 23.68 100.388 23.68C99.6683 23.68 99.0416 23.8333 98.5083 24.14C97.9883 24.4333 97.5816 24.8667 97.2883 25.44C97.0083 26 96.8683 26.68 96.8683 27.48V33H95.4483V27.04C95.4483 25.9333 95.1816 25.1 94.6483 24.54C94.1149 23.9667 93.3683 23.68 92.4083 23.68C91.7016 23.68 91.0816 23.8333 90.5483 24.14C90.0149 24.4333 89.6016 24.8667 89.3083 25.44C89.0283 26 88.8883 26.68 88.8883 27.48V33H87.4683V22.5H88.8283V25.34L88.6083 24.84C88.9283 24.08 89.4416 23.4867 90.1483 23.06C90.8683 22.62 91.7149 22.4 92.6883 22.4C93.7149 22.4 94.5883 22.66 95.3083 23.18C96.0283 23.6867 96.4949 24.4533 96.7083 25.48L96.1483 25.26C96.4549 24.4067 96.9949 23.72 97.7683 23.2C98.5549 22.6667 99.4949 22.4 100.588 22.4ZM114.214 33V19H119.454C120.64 19 121.66 19.1933 122.514 19.58C123.367 19.9533 124.02 20.5 124.474 21.22C124.94 21.9267 125.174 22.7867 125.174 23.8C125.174 24.7867 124.94 25.64 124.474 26.36C124.02 27.0667 123.367 27.6133 122.514 28C121.66 28.3867 120.64 28.58 119.454 28.58H115.034L115.694 27.88V33H114.214ZM115.694 28L115.034 27.28H119.414C120.814 27.28 121.874 26.98 122.594 26.38C123.327 25.7667 123.694 24.9067 123.694 23.8C123.694 22.68 123.327 21.8133 122.594 21.2C121.874 20.5867 120.814 20.28 119.414 20.28H115.034L115.694 19.58V28ZM127.82 33V22.5H129.18V25.36L129.04 24.86C129.333 24.06 129.827 23.4533 130.52 23.04C131.213 22.6133 132.073 22.4 133.1 22.4V23.78C133.047 23.78 132.993 23.78 132.94 23.78C132.887 23.7667 132.833 23.76 132.78 23.76C131.673 23.76 130.807 24.1 130.18 24.78C129.553 25.4467 129.24 26.4 129.24 27.64V33H127.82ZM139.873 33.1C138.86 33.1 137.947 32.8733 137.133 32.42C136.333 31.9533 135.7 31.32 135.233 30.52C134.767 29.7067 134.533 28.78 134.533 27.74C134.533 26.6867 134.767 25.76 135.233 24.96C135.7 24.16 136.333 23.5333 137.133 23.08C137.933 22.6267 138.847 22.4 139.873 22.4C140.913 22.4 141.833 22.6267 142.633 23.08C143.447 23.5333 144.08 24.16 144.533 24.96C145 25.76 145.233 26.6867 145.233 27.74C145.233 28.78 145 29.7067 144.533 30.52C144.08 31.32 143.447 31.9533 142.633 32.42C141.82 32.8733 140.9 33.1 139.873 33.1ZM139.873 31.84C140.633 31.84 141.307 31.6733 141.893 31.34C142.48 30.9933 142.94 30.5133 143.273 29.9C143.62 29.2733 143.793 28.5533 143.793 27.74C143.793 26.9133 143.62 26.1933 143.273 25.58C142.94 24.9667 142.48 24.4933 141.893 24.16C141.307 23.8133 140.64 23.64 139.893 23.64C139.147 23.64 138.48 23.8133 137.893 24.16C137.307 24.4933 136.84 24.9667 136.493 25.58C136.147 26.1933 135.973 26.9133 135.973 27.74C135.973 28.5533 136.147 29.2733 136.493 29.9C136.84 30.5133 137.307 30.9933 137.893 31.34C138.48 31.6733 139.14 31.84 139.873 31.84ZM152.612 36.98C151.652 36.98 150.732 36.84 149.852 36.56C148.972 36.28 148.259 35.88 147.712 35.36L148.432 34.28C148.926 34.72 149.532 35.0667 150.252 35.32C150.986 35.5867 151.759 35.72 152.572 35.72C153.906 35.72 154.886 35.4067 155.512 34.78C156.139 34.1667 156.452 33.2067 156.452 31.9V29.28L156.652 27.48L156.512 25.68V22.5H157.872V31.72C157.872 33.5333 157.426 34.86 156.532 35.7C155.652 36.5533 154.346 36.98 152.612 36.98ZM152.352 32.6C151.352 32.6 150.452 32.3867 149.652 31.96C148.852 31.52 148.219 30.9133 147.752 30.14C147.299 29.3667 147.072 28.48 147.072 27.48C147.072 26.48 147.299 25.6 147.752 24.84C148.219 24.0667 148.852 23.4667 149.652 23.04C150.452 22.6133 151.352 22.4 152.352 22.4C153.286 22.4 154.126 22.5933 154.872 22.98C155.619 23.3667 156.212 23.94 156.652 24.7C157.092 25.46 157.312 26.3867 157.312 27.48C157.312 28.5733 157.092 29.5 156.652 30.26C156.212 31.02 155.619 31.6 154.872 32C154.126 32.4 153.286 32.6 152.352 32.6ZM152.492 31.34C153.266 31.34 153.952 31.18 154.552 30.86C155.152 30.5267 155.626 30.0733 155.972 29.5C156.319 28.9133 156.492 28.24 156.492 27.48C156.492 26.72 156.319 26.0533 155.972 25.48C155.626 24.9067 155.152 24.46 154.552 24.14C153.952 23.8067 153.266 23.64 152.492 23.64C151.732 23.64 151.046 23.8067 150.432 24.14C149.832 24.46 149.359 24.9067 149.012 25.48C148.679 26.0533 148.512 26.72 148.512 27.48C148.512 28.24 148.679 28.9133 149.012 29.5C149.359 30.0733 149.832 30.5267 150.432 30.86C151.046 31.18 151.732 31.34 152.492 31.34ZM161.824 33V22.5H163.184V25.36L163.044 24.86C163.337 24.06 163.83 23.4533 164.524 23.04C165.217 22.6133 166.077 22.4 167.104 22.4V23.78C167.05 23.78 166.997 23.78 166.944 23.78C166.89 23.7667 166.837 23.76 166.784 23.76C165.677 23.76 164.81 24.1 164.184 24.78C163.557 25.4467 163.244 26.4 163.244 27.64V33H161.824ZM174.057 33.1C172.964 33.1 172.004 32.8733 171.177 32.42C170.351 31.9533 169.704 31.32 169.237 30.52C168.771 29.7067 168.537 28.78 168.537 27.74C168.537 26.7 168.757 25.78 169.197 24.98C169.651 24.18 170.264 23.5533 171.037 23.1C171.824 22.6333 172.704 22.4 173.677 22.4C174.664 22.4 175.537 22.6267 176.297 23.08C177.071 23.52 177.677 24.1467 178.117 24.96C178.557 25.76 178.777 26.6867 178.777 27.74C178.777 27.8067 178.771 27.88 178.757 27.96C178.757 28.0267 178.757 28.1 178.757 28.18H169.617V27.12H177.997L177.437 27.54C177.437 26.78 177.271 26.1067 176.937 25.52C176.617 24.92 176.177 24.4533 175.617 24.12C175.057 23.7867 174.411 23.62 173.677 23.62C172.957 23.62 172.311 23.7867 171.737 24.12C171.164 24.4533 170.717 24.92 170.397 25.52C170.077 26.12 169.917 26.8067 169.917 27.58V27.8C169.917 28.6 170.091 29.3067 170.437 29.92C170.797 30.52 171.291 30.9933 171.917 31.34C172.557 31.6733 173.284 31.84 174.097 31.84C174.737 31.84 175.331 31.7267 175.877 31.5C176.437 31.2733 176.917 30.9267 177.317 30.46L178.117 31.38C177.651 31.94 177.064 32.3667 176.357 32.66C175.664 32.9533 174.897 33.1 174.057 33.1ZM184.488 33.1C183.621 33.1 182.801 32.98 182.028 32.74C181.254 32.4867 180.648 32.1733 180.208 31.8L180.848 30.68C181.274 31 181.821 31.28 182.488 31.52C183.154 31.7467 183.854 31.86 184.588 31.86C185.588 31.86 186.308 31.7067 186.748 31.4C187.188 31.08 187.408 30.66 187.408 30.14C187.408 29.7533 187.281 29.4533 187.028 29.24C186.788 29.0133 186.468 28.8467 186.068 28.74C185.668 28.62 185.221 28.52 184.728 28.44C184.234 28.36 183.741 28.2667 183.248 28.16C182.768 28.0533 182.328 27.9 181.928 27.7C181.528 27.4867 181.201 27.2 180.948 26.84C180.708 26.48 180.588 26 180.588 25.4C180.588 24.8267 180.748 24.3133 181.068 23.86C181.388 23.4067 181.854 23.0533 182.468 22.8C183.094 22.5333 183.854 22.4 184.748 22.4C185.428 22.4 186.108 22.4933 186.788 22.68C187.468 22.8533 188.028 23.0867 188.468 23.38L187.848 24.52C187.381 24.2 186.881 23.9733 186.348 23.84C185.814 23.6933 185.281 23.62 184.748 23.62C183.801 23.62 183.101 23.7867 182.648 24.12C182.208 24.44 181.988 24.8533 181.988 25.36C181.988 25.76 182.108 26.0733 182.348 26.3C182.601 26.5267 182.928 26.7067 183.328 26.84C183.741 26.96 184.188 27.06 184.668 27.14C185.161 27.22 185.648 27.32 186.128 27.44C186.621 27.5467 187.068 27.7 187.468 27.9C187.881 28.0867 188.208 28.36 188.448 28.72C188.701 29.0667 188.828 29.5267 188.828 30.1C188.828 30.7133 188.654 31.2467 188.308 31.7C187.974 32.14 187.481 32.4867 186.828 32.74C186.188 32.98 185.408 33.1 184.488 33.1Z" fill="black"/>
<circle cx="12" cy="26" r="12" fill="#FDEC33"/>
</svg>
