<svg width="925" height="76" viewBox="0 0 925 76" fill="none" xmlns="http://www.w3.org/2000/svg">
<g filter="url(#filter0_dd_70_358)">
<rect x="4" width="913" height="66" fill="url(#paint0_linear_70_358)"/>
</g>
<path d="M383.66 40V26H390.02C391.54 26 392.88 26.2933 394.04 26.88C395.2 27.4533 396.107 28.26 396.76 29.3C397.413 30.34 397.74 31.5733 397.74 33C397.74 34.4133 397.413 35.6467 396.76 36.7C396.107 37.74 395.2 38.5533 394.04 39.14C392.88 39.7133 391.54 40 390.02 40H383.66ZM386.9 37.34H389.86C390.793 37.34 391.6 37.1667 392.28 36.82C392.973 36.46 393.507 35.9533 393.88 35.3C394.267 34.6467 394.46 33.88 394.46 33C394.46 32.1067 394.267 31.34 393.88 30.7C393.507 30.0467 392.973 29.5467 392.28 29.2C391.6 28.84 390.793 28.66 389.86 28.66H386.9V37.34ZM399.963 40V29.24H403.083V40H399.963ZM401.523 27.74C400.95 27.74 400.483 27.5733 400.123 27.24C399.763 26.9067 399.583 26.4933 399.583 26C399.583 25.5067 399.763 25.0933 400.123 24.76C400.483 24.4267 400.95 24.26 401.523 24.26C402.097 24.26 402.563 24.42 402.923 24.74C403.283 25.0467 403.463 25.4467 403.463 25.94C403.463 26.46 403.283 26.8933 402.923 27.24C402.577 27.5733 402.11 27.74 401.523 27.74ZM408.899 40L404.379 29.24H407.599L411.359 38.5H409.759L413.659 29.24H416.659L412.119 40H408.899ZM417.932 40V29.24H421.052V40H417.932ZM419.492 27.74C418.919 27.74 418.452 27.5733 418.092 27.24C417.732 26.9067 417.552 26.4933 417.552 26C417.552 25.5067 417.732 25.0933 418.092 24.76C418.452 24.4267 418.919 24.26 419.492 24.26C420.066 24.26 420.532 24.42 420.892 24.74C421.252 25.0467 421.432 25.4467 421.432 25.94C421.432 26.46 421.252 26.8933 420.892 27.24C420.546 27.5733 420.079 27.74 419.492 27.74ZM427.568 40.16C426.648 40.16 425.761 40.0533 424.908 39.84C424.068 39.6133 423.401 39.3333 422.908 39L423.948 36.76C424.441 37.0667 425.021 37.32 425.688 37.52C426.368 37.7067 427.034 37.8 427.688 37.8C428.408 37.8 428.914 37.7133 429.208 37.54C429.514 37.3667 429.668 37.1267 429.668 36.82C429.668 36.5667 429.548 36.38 429.308 36.26C429.081 36.1267 428.774 36.0267 428.388 35.96C428.001 35.8933 427.574 35.8267 427.108 35.76C426.654 35.6933 426.194 35.6067 425.728 35.5C425.261 35.38 424.834 35.2067 424.448 34.98C424.061 34.7533 423.748 34.4467 423.508 34.06C423.281 33.6733 423.168 33.1733 423.168 32.56C423.168 31.88 423.361 31.28 423.748 30.76C424.148 30.24 424.721 29.8333 425.468 29.54C426.214 29.2333 427.108 29.08 428.148 29.08C428.881 29.08 429.628 29.16 430.388 29.32C431.148 29.48 431.781 29.7133 432.288 30.02L431.248 32.24C430.728 31.9333 430.201 31.7267 429.668 31.62C429.148 31.5 428.641 31.44 428.148 31.44C427.454 31.44 426.948 31.5333 426.628 31.72C426.308 31.9067 426.148 32.1467 426.148 32.44C426.148 32.7067 426.261 32.9067 426.488 33.04C426.728 33.1733 427.041 33.28 427.428 33.36C427.814 33.44 428.234 33.5133 428.688 33.58C429.154 33.6333 429.621 33.72 430.088 33.84C430.554 33.96 430.974 34.1333 431.348 34.36C431.734 34.5733 432.048 34.8733 432.288 35.26C432.528 35.6333 432.648 36.1267 432.648 36.74C432.648 37.4067 432.448 38 432.048 38.52C431.648 39.0267 431.068 39.4267 430.308 39.72C429.561 40.0133 428.648 40.16 427.568 40.16ZM434.573 40V29.24H437.693V40H434.573ZM436.133 27.74C435.559 27.74 435.093 27.5733 434.733 27.24C434.373 26.9067 434.193 26.4933 434.193 26C434.193 25.5067 434.373 25.0933 434.733 24.76C435.093 24.4267 435.559 24.26 436.133 24.26C436.706 24.26 437.173 24.42 437.533 24.74C437.893 25.0467 438.073 25.4467 438.073 25.94C438.073 26.46 437.893 26.8933 437.533 27.24C437.186 27.5733 436.719 27.74 436.133 27.74Z" fill="white"/>
<path d="M704.868 43.24C703.748 43.24 702.675 43.0933 701.648 42.8C700.622 42.4933 699.795 42.1 699.168 41.62L700.268 39.18C700.868 39.6067 701.575 39.96 702.388 40.24C703.215 40.5067 704.048 40.64 704.888 40.64C705.528 40.64 706.042 40.58 706.428 40.46C706.828 40.3267 707.122 40.1467 707.308 39.92C707.495 39.6933 707.588 39.4333 707.588 39.14C707.588 38.7667 707.442 38.4733 707.148 38.26C706.855 38.0333 706.468 37.8533 705.988 37.72C705.508 37.5733 704.975 37.44 704.388 37.32C703.815 37.1867 703.235 37.0267 702.648 36.84C702.075 36.6533 701.548 36.4133 701.068 36.12C700.588 35.8267 700.195 35.44 699.888 34.96C699.595 34.48 699.448 33.8667 699.448 33.12C699.448 32.32 699.662 31.5933 700.088 30.94C700.528 30.2733 701.182 29.7467 702.048 29.36C702.928 28.96 704.028 28.76 705.348 28.76C706.228 28.76 707.095 28.8667 707.948 29.08C708.802 29.28 709.555 29.5867 710.208 30L709.208 32.46C708.555 32.0867 707.902 31.8133 707.248 31.64C706.595 31.4533 705.955 31.36 705.328 31.36C704.702 31.36 704.188 31.4333 703.788 31.58C703.388 31.7267 703.102 31.92 702.928 32.16C702.755 32.3867 702.668 32.6533 702.668 32.96C702.668 33.32 702.815 33.6133 703.108 33.84C703.402 34.0533 703.788 34.2267 704.268 34.36C704.748 34.4933 705.275 34.6267 705.848 34.76C706.435 34.8933 707.015 35.0467 707.588 35.22C708.175 35.3933 708.708 35.6267 709.188 35.92C709.668 36.2133 710.055 36.6 710.348 37.08C710.655 37.56 710.808 38.1667 710.808 38.9C710.808 39.6867 710.588 40.4067 710.148 41.06C709.708 41.7133 709.048 42.24 708.168 42.64C707.302 43.04 706.202 43.24 704.868 43.24ZM717.202 43.16C715.936 43.16 714.949 42.84 714.242 42.2C713.536 41.5467 713.182 40.58 713.182 39.3V29.86H716.302V39.26C716.302 39.7133 716.422 40.0667 716.662 40.32C716.902 40.56 717.229 40.68 717.642 40.68C718.136 40.68 718.556 40.5467 718.902 40.28L719.742 42.48C719.422 42.7067 719.036 42.88 718.582 43C718.142 43.1067 717.682 43.16 717.202 43.16ZM711.522 34.88V32.48H718.982V34.88H711.522ZM728.094 43V40.9L727.894 40.44V36.68C727.894 36.0133 727.687 35.4933 727.274 35.12C726.874 34.7467 726.254 34.56 725.414 34.56C724.84 34.56 724.274 34.6533 723.714 34.84C723.167 35.0133 722.7 35.2533 722.314 35.56L721.194 33.38C721.78 32.9667 722.487 32.6467 723.314 32.42C724.14 32.1933 724.98 32.08 725.834 32.08C727.474 32.08 728.747 32.4667 729.654 33.24C730.56 34.0133 731.014 35.22 731.014 36.86V43H728.094ZM724.814 43.16C723.974 43.16 723.254 43.02 722.654 42.74C722.054 42.4467 721.594 42.0533 721.274 41.56C720.954 41.0667 720.794 40.5133 720.794 39.9C720.794 39.26 720.947 38.7 721.254 38.22C721.574 37.74 722.074 37.3667 722.754 37.1C723.434 36.82 724.32 36.68 725.414 36.68H728.274V38.5H725.754C725.02 38.5 724.514 38.62 724.234 38.86C723.967 39.1 723.834 39.4 723.834 39.76C723.834 40.16 723.987 40.48 724.294 40.72C724.614 40.9467 725.047 41.06 725.594 41.06C726.114 41.06 726.58 40.94 726.994 40.7C727.407 40.4467 727.707 40.08 727.894 39.6L728.374 41.04C728.147 41.7333 727.734 42.26 727.134 42.62C726.534 42.98 725.76 43.16 724.814 43.16ZM738.237 43.16C736.971 43.16 735.984 42.84 735.277 42.2C734.571 41.5467 734.217 40.58 734.217 39.3V29.86H737.337V39.26C737.337 39.7133 737.457 40.0667 737.697 40.32C737.937 40.56 738.264 40.68 738.677 40.68C739.171 40.68 739.591 40.5467 739.937 40.28L740.777 42.48C740.457 42.7067 740.071 42.88 739.617 43C739.177 43.1067 738.717 43.16 738.237 43.16ZM732.557 34.88V32.48H740.017V34.88H732.557ZM747.069 43.16C746.176 43.16 745.376 42.9867 744.669 42.64C743.976 42.2933 743.436 41.7667 743.049 41.06C742.662 40.34 742.469 39.4267 742.469 38.32V32.24H745.589V37.86C745.589 38.7533 745.776 39.4133 746.149 39.84C746.536 40.2533 747.076 40.46 747.769 40.46C748.249 40.46 748.676 40.36 749.049 40.16C749.422 39.9467 749.716 39.6267 749.929 39.2C750.142 38.76 750.249 38.2133 750.249 37.56V32.24H753.369V43H750.409V40.04L750.949 40.9C750.589 41.6467 750.056 42.2133 749.349 42.6C748.656 42.9733 747.896 43.16 747.069 43.16ZM759.879 43.16C758.959 43.16 758.073 43.0533 757.219 42.84C756.379 42.6133 755.713 42.3333 755.219 42L756.259 39.76C756.753 40.0667 757.333 40.32 757.999 40.52C758.679 40.7067 759.346 40.8 759.999 40.8C760.719 40.8 761.226 40.7133 761.519 40.54C761.826 40.3667 761.979 40.1267 761.979 39.82C761.979 39.5667 761.859 39.38 761.619 39.26C761.393 39.1267 761.086 39.0267 760.699 38.96C760.313 38.8933 759.886 38.8267 759.419 38.76C758.966 38.6933 758.506 38.6067 758.039 38.5C757.573 38.38 757.146 38.2067 756.759 37.98C756.373 37.7533 756.059 37.4467 755.819 37.06C755.593 36.6733 755.479 36.1733 755.479 35.56C755.479 34.88 755.673 34.28 756.059 33.76C756.459 33.24 757.033 32.8333 757.779 32.54C758.526 32.2333 759.419 32.08 760.459 32.08C761.193 32.08 761.939 32.16 762.699 32.32C763.459 32.48 764.093 32.7133 764.599 33.02L763.559 35.24C763.039 34.9333 762.513 34.7267 761.979 34.62C761.459 34.5 760.953 34.44 760.459 34.44C759.766 34.44 759.259 34.5333 758.939 34.72C758.619 34.9067 758.459 35.1467 758.459 35.44C758.459 35.7067 758.573 35.9067 758.799 36.04C759.039 36.1733 759.353 36.28 759.739 36.36C760.126 36.44 760.546 36.5133 760.999 36.58C761.466 36.6333 761.933 36.72 762.399 36.84C762.866 36.96 763.286 37.1333 763.659 37.36C764.046 37.5733 764.359 37.8733 764.599 38.26C764.839 38.6333 764.959 39.1267 764.959 39.74C764.959 40.4067 764.759 41 764.359 41.52C763.959 42.0267 763.379 42.4267 762.619 42.72C761.873 43.0133 760.959 43.16 759.879 43.16Z" fill="white"/>
<path d="M66.24 40.24C65.2933 40.24 64.42 40.0667 63.62 39.72C62.8333 39.36 62.1867 38.8533 61.68 38.2L63.48 36.04C63.8667 36.5467 64.2733 36.9333 64.7 37.2C65.1267 37.4533 65.5867 37.58 66.08 37.58C67.4 37.58 68.06 36.8067 68.06 35.26V28.6H63.14V26H71.28V35.08C71.28 36.8133 70.8533 38.1067 70 38.96C69.1467 39.8133 67.8933 40.24 66.24 40.24ZM78.8003 40.16C77.907 40.16 77.107 39.9867 76.4003 39.64C75.707 39.2933 75.167 38.7667 74.7803 38.06C74.3936 37.34 74.2003 36.4267 74.2003 35.32V29.24H77.3203V34.86C77.3203 35.7533 77.507 36.4133 77.8803 36.84C78.267 37.2533 78.807 37.46 79.5003 37.46C79.9803 37.46 80.407 37.36 80.7803 37.16C81.1536 36.9467 81.447 36.6267 81.6603 36.2C81.8736 35.76 81.9803 35.2133 81.9803 34.56V29.24H85.1003V40H82.1403V37.04L82.6803 37.9C82.3203 38.6467 81.787 39.2133 81.0803 39.6C80.387 39.9733 79.627 40.16 78.8003 40.16ZM92.6108 40.16C91.5974 40.16 90.6841 39.9333 89.8708 39.48C89.0574 39.0133 88.4108 38.3667 87.9308 37.54C87.4641 36.7133 87.2308 35.74 87.2308 34.62C87.2308 33.4867 87.4641 32.5067 87.9308 31.68C88.4108 30.8533 89.0574 30.2133 89.8708 29.76C90.6841 29.3067 91.5974 29.08 92.6108 29.08C93.5174 29.08 94.3108 29.28 94.9908 29.68C95.6708 30.08 96.1974 30.6867 96.5708 31.5C96.9441 32.3133 97.1308 33.3533 97.1308 34.62C97.1308 35.8733 96.9508 36.9133 96.5908 37.74C96.2308 38.5533 95.7108 39.16 95.0308 39.56C94.3641 39.96 93.5574 40.16 92.6108 40.16ZM93.1508 37.6C93.6574 37.6 94.1174 37.48 94.5308 37.24C94.9441 37 95.2708 36.66 95.5108 36.22C95.7641 35.7667 95.8908 35.2333 95.8908 34.62C95.8908 33.9933 95.7641 33.46 95.5108 33.02C95.2708 32.58 94.9441 32.24 94.5308 32C94.1174 31.76 93.6574 31.64 93.1508 31.64C92.6308 31.64 92.1641 31.76 91.7508 32C91.3374 32.24 91.0041 32.58 90.7508 33.02C90.5108 33.46 90.3908 33.9933 90.3908 34.62C90.3908 35.2333 90.5108 35.7667 90.7508 36.22C91.0041 36.66 91.3374 37 91.7508 37.24C92.1641 37.48 92.6308 37.6 93.1508 37.6ZM95.9708 40V37.8L96.0308 34.6L95.8308 31.42V25.16H98.9508V40H95.9708ZM106.378 40.16C105.485 40.16 104.685 39.9867 103.978 39.64C103.285 39.2933 102.745 38.7667 102.358 38.06C101.972 37.34 101.778 36.4267 101.778 35.32V29.24H104.898V34.86C104.898 35.7533 105.085 36.4133 105.458 36.84C105.845 37.2533 106.385 37.46 107.078 37.46C107.558 37.46 107.985 37.36 108.358 37.16C108.732 36.9467 109.025 36.6267 109.238 36.2C109.452 35.76 109.558 35.2133 109.558 34.56V29.24H112.678V40H109.718V37.04L110.258 37.9C109.898 38.6467 109.365 39.2133 108.658 39.6C107.965 39.9733 107.205 40.16 106.378 40.16ZM115.569 40V25.16H118.689V40H115.569ZM130.369 40V28.64H125.889V26H138.089V28.64H133.609V40H130.369ZM143.918 40.16C143.024 40.16 142.224 39.9867 141.518 39.64C140.824 39.2933 140.284 38.7667 139.898 38.06C139.511 37.34 139.318 36.4267 139.318 35.32V29.24H142.438V34.86C142.438 35.7533 142.624 36.4133 142.998 36.84C143.384 37.2533 143.924 37.46 144.618 37.46C145.098 37.46 145.524 37.36 145.898 37.16C146.271 36.9467 146.564 36.6267 146.778 36.2C146.991 35.76 147.098 35.2133 147.098 34.56V29.24H150.218V40H147.258V37.04L147.798 37.9C147.438 38.6467 146.904 39.2133 146.198 39.6C145.504 39.9733 144.744 40.16 143.918 40.16ZM158.168 44.04C157.155 44.04 156.175 43.9133 155.228 43.66C154.295 43.42 153.515 43.0533 152.888 42.56L154.128 40.32C154.581 40.6933 155.155 40.9867 155.848 41.2C156.555 41.4267 157.248 41.54 157.928 41.54C159.035 41.54 159.835 41.2933 160.328 40.8C160.835 40.3067 161.088 39.5733 161.088 38.6V36.98L161.288 34.28L161.248 31.56V29.24H164.208V38.2C164.208 40.2 163.688 41.6733 162.648 42.62C161.608 43.5667 160.115 44.04 158.168 44.04ZM157.688 39.48C156.688 39.48 155.781 39.2667 154.968 38.84C154.168 38.4 153.521 37.7933 153.028 37.02C152.548 36.2333 152.308 35.32 152.308 34.28C152.308 33.2267 152.548 32.3133 153.028 31.54C153.521 30.7533 154.168 30.1467 154.968 29.72C155.781 29.2933 156.688 29.08 157.688 29.08C158.595 29.08 159.395 29.2667 160.088 29.64C160.781 30 161.321 30.5667 161.708 31.34C162.095 32.1 162.288 33.08 162.288 34.28C162.288 35.4667 162.095 36.4467 161.708 37.22C161.321 37.98 160.781 38.5467 160.088 38.92C159.395 39.2933 158.595 39.48 157.688 39.48ZM158.308 36.92C158.855 36.92 159.341 36.8133 159.768 36.6C160.195 36.3733 160.528 36.06 160.768 35.66C161.008 35.26 161.128 34.8 161.128 34.28C161.128 33.7467 161.008 33.2867 160.768 32.9C160.528 32.5 160.195 32.1933 159.768 31.98C159.341 31.7533 158.855 31.64 158.308 31.64C157.761 31.64 157.275 31.7533 156.848 31.98C156.421 32.1933 156.081 32.5 155.828 32.9C155.588 33.2867 155.468 33.7467 155.468 34.28C155.468 34.8 155.588 35.26 155.828 35.66C156.081 36.06 156.421 36.3733 156.848 36.6C157.275 36.8133 157.761 36.92 158.308 36.92ZM173.712 40V37.9L173.512 37.44V33.68C173.512 33.0133 173.305 32.4933 172.892 32.12C172.492 31.7467 171.872 31.56 171.032 31.56C170.459 31.56 169.892 31.6533 169.332 31.84C168.785 32.0133 168.319 32.2533 167.932 32.56L166.812 30.38C167.399 29.9667 168.105 29.6467 168.932 29.42C169.759 29.1933 170.599 29.08 171.452 29.08C173.092 29.08 174.365 29.4667 175.272 30.24C176.179 31.0133 176.632 32.22 176.632 33.86V40H173.712ZM170.432 40.16C169.592 40.16 168.872 40.02 168.272 39.74C167.672 39.4467 167.212 39.0533 166.892 38.56C166.572 38.0667 166.412 37.5133 166.412 36.9C166.412 36.26 166.565 35.7 166.872 35.22C167.192 34.74 167.692 34.3667 168.372 34.1C169.052 33.82 169.939 33.68 171.032 33.68H173.892V35.5H171.372C170.639 35.5 170.132 35.62 169.852 35.86C169.585 36.1 169.452 36.4 169.452 36.76C169.452 37.16 169.605 37.48 169.912 37.72C170.232 37.9467 170.665 38.06 171.212 38.06C171.732 38.06 172.199 37.94 172.612 37.7C173.025 37.4467 173.325 37.08 173.512 36.6L173.992 38.04C173.765 38.7333 173.352 39.26 172.752 39.62C172.152 39.98 171.379 40.16 170.432 40.16ZM183.076 40.16C182.156 40.16 181.269 40.0533 180.416 39.84C179.576 39.6133 178.909 39.3333 178.416 39L179.456 36.76C179.949 37.0667 180.529 37.32 181.196 37.52C181.876 37.7067 182.542 37.8 183.196 37.8C183.916 37.8 184.422 37.7133 184.716 37.54C185.022 37.3667 185.176 37.1267 185.176 36.82C185.176 36.5667 185.056 36.38 184.816 36.26C184.589 36.1267 184.282 36.0267 183.896 35.96C183.509 35.8933 183.082 35.8267 182.616 35.76C182.162 35.6933 181.702 35.6067 181.236 35.5C180.769 35.38 180.342 35.2067 179.956 34.98C179.569 34.7533 179.256 34.4467 179.016 34.06C178.789 33.6733 178.676 33.1733 178.676 32.56C178.676 31.88 178.869 31.28 179.256 30.76C179.656 30.24 180.229 29.8333 180.976 29.54C181.722 29.2333 182.616 29.08 183.656 29.08C184.389 29.08 185.136 29.16 185.896 29.32C186.656 29.48 187.289 29.7133 187.796 30.02L186.756 32.24C186.236 31.9333 185.709 31.7267 185.176 31.62C184.656 31.5 184.149 31.44 183.656 31.44C182.962 31.44 182.456 31.5333 182.136 31.72C181.816 31.9067 181.656 32.1467 181.656 32.44C181.656 32.7067 181.769 32.9067 181.996 33.04C182.236 33.1733 182.549 33.28 182.936 33.36C183.322 33.44 183.742 33.5133 184.196 33.58C184.662 33.6333 185.129 33.72 185.596 33.84C186.062 33.96 186.482 34.1333 186.856 34.36C187.242 34.5733 187.556 34.8733 187.796 35.26C188.036 35.6333 188.156 36.1267 188.156 36.74C188.156 37.4067 187.956 38 187.556 38.52C187.156 39.0267 186.576 39.4267 185.816 39.72C185.069 40.0133 184.156 40.16 183.076 40.16Z" fill="white"/>
<defs>
<filter id="filter0_dd_70_358" x="0" y="0" width="925" height="76" filterUnits="userSpaceOnUse" color-interpolation-filters="sRGB">
<feFlood flood-opacity="0" result="BackgroundImageFix"/>
<feColorMatrix in="SourceAlpha" type="matrix" values="0 0 0 0 0 0 0 0 0 0 0 0 0 0 0 0 0 0 127 0" result="hardAlpha"/>
<feOffset dy="4"/>
<feGaussianBlur stdDeviation="2"/>
<feComposite in2="hardAlpha" operator="out"/>
<feColorMatrix type="matrix" values="0 0 0 0 0 0 0 0 0 0 0 0 0 0 0 0 0 0 0.25 0"/>
<feBlend mode="normal" in2="BackgroundImageFix" result="effect1_dropShadow_70_358"/>
<feColorMatrix in="SourceAlpha" type="matrix" values="0 0 0 0 0 0 0 0 0 0 0 0 0 0 0 0 0 0 127 0" result="hardAlpha"/>
<feOffset dx="3" dy="5"/>
<feGaussianBlur stdDeviation="2.5"/>
<feComposite in2="hardAlpha" operator="out"/>
<feColorMatrix type="matrix" values="0 0 0 0 0 0 0 0 0 0 0 0 0 0 0 0 0 0 0.25 0"/>
<feBlend mode="normal" in2="effect1_dropShadow_70_358" result="effect2_dropShadow_70_358"/>
<feBlend mode="normal" in="SourceGraphic" in2="effect2_dropShadow_70_358" result="shape"/>
</filter>
<linearGradient id="paint0_linear_70_358" x1="4" y1="0" x2="910.795" y2="76.1476" gradientUnits="userSpaceOnUse">
<stop stop-color="#6B8CAE"/>
<stop offset="1" stop-color="#9CAF88"/>
</linearGradient>
</defs>
</svg>
