<svg width="170" height="62" viewBox="0 0 170 62" fill="none" xmlns="http://www.w3.org/2000/svg">
<rect width="170" height="61.8567" rx="15" fill="url(#paint0_linear_70_368)"/>
<path d="M47.6792 38.1203V26.3203H43.0392V24.1203H54.9192V26.3203H50.2792V38.1203H47.6792ZM62.6441 38.1203V35.9603L62.5041 35.5003V31.7203C62.5041 30.9869 62.2841 30.4203 61.8441 30.0203C61.4041 29.6069 60.7374 29.4003 59.8441 29.4003C59.2441 29.4003 58.6507 29.4936 58.0641 29.6803C57.4907 29.8669 57.0041 30.1269 56.6041 30.4603L55.6241 28.6403C56.1974 28.2003 56.8774 27.8736 57.6641 27.6603C58.4641 27.4336 59.2907 27.3203 60.1441 27.3203C61.6907 27.3203 62.8841 27.6936 63.7241 28.4403C64.5774 29.1736 65.0041 30.3136 65.0041 31.8603V38.1203H62.6441ZM59.2841 38.2603C58.4841 38.2603 57.7841 38.1269 57.1841 37.8603C56.5841 37.5803 56.1174 37.2003 55.7841 36.7203C55.4641 36.2269 55.3041 35.6736 55.3041 35.0603C55.3041 34.4603 55.4441 33.9203 55.7241 33.4403C56.0174 32.9603 56.4907 32.5803 57.1441 32.3003C57.7974 32.0203 58.6641 31.8803 59.7441 31.8803H62.8441V33.5403H59.9241C59.0707 33.5403 58.4974 33.6803 58.2041 33.9603C57.9107 34.2269 57.7641 34.5603 57.7641 34.9603C57.7641 35.4136 57.9441 35.7736 58.3041 36.0403C58.6641 36.3069 59.1641 36.4403 59.8041 36.4403C60.4174 36.4403 60.9641 36.3003 61.4441 36.0203C61.9374 35.7403 62.2907 35.3269 62.5041 34.7803L62.9241 36.2803C62.6841 36.9069 62.2507 37.3936 61.6241 37.7403C61.0107 38.0869 60.2307 38.2603 59.2841 38.2603ZM81.6925 27.3203C82.5458 27.3203 83.2992 27.4869 83.9525 27.8203C84.6192 28.1536 85.1392 28.6669 85.5125 29.3603C85.8858 30.0403 86.0725 30.9203 86.0725 32.0003V38.1203H83.5725V32.3203C83.5725 31.3736 83.3658 30.6669 82.9525 30.2003C82.5392 29.7336 81.9458 29.5003 81.1725 29.5003C80.6258 29.5003 80.1392 29.6203 79.7125 29.8603C79.2992 30.1003 78.9725 30.4536 78.7325 30.9203C78.5058 31.3869 78.3925 31.9803 78.3925 32.7003V38.1203H75.8925V32.3203C75.8925 31.3736 75.6858 30.6669 75.2725 30.2003C74.8592 29.7336 74.2658 29.5003 73.4925 29.5003C72.9458 29.5003 72.4592 29.6203 72.0325 29.8603C71.6192 30.1003 71.2925 30.4536 71.0525 30.9203C70.8258 31.3869 70.7125 31.9803 70.7125 32.7003V38.1203H68.2125V27.4403H70.5925V30.2803L70.1725 29.4403C70.5325 28.7469 71.0525 28.2203 71.7325 27.8603C72.4258 27.5003 73.2125 27.3203 74.0925 27.3203C75.0925 27.3203 75.9592 27.5669 76.6925 28.0603C77.4392 28.5536 77.9325 29.3003 78.1725 30.3003L77.1925 29.9603C77.5392 29.1603 78.1125 28.5203 78.9125 28.0403C79.7125 27.5603 80.6392 27.3203 81.6925 27.3203ZM95.1872 38.2603C94.2805 38.2603 93.4739 38.0603 92.7672 37.6603C92.0605 37.2603 91.5005 36.6603 91.0872 35.8603C90.6872 35.0469 90.4872 34.0203 90.4872 32.7803C90.4872 31.5269 90.6939 30.5003 91.1072 29.7003C91.5339 28.9003 92.1005 28.3069 92.8072 27.9203C93.5272 27.5203 94.3205 27.3203 95.1872 27.3203C96.2405 27.3203 97.1672 27.5469 97.9672 28.0003C98.7805 28.4536 99.4205 29.0869 99.8872 29.9003C100.367 30.7136 100.607 31.6736 100.607 32.7803C100.607 33.8869 100.367 34.8469 99.8872 35.6603C99.4205 36.4736 98.7805 37.1136 97.9672 37.5803C97.1672 38.0336 96.2405 38.2603 95.1872 38.2603ZM89.2672 38.1203V23.2803H91.7672V29.9203L91.5672 32.7603L91.6472 35.6003V38.1203H89.2672ZM94.9072 36.1203C95.5072 36.1203 96.0405 35.9869 96.5072 35.7203C96.9872 35.4536 97.3672 35.0669 97.6472 34.5603C97.9272 34.0536 98.0672 33.4603 98.0672 32.7803C98.0672 32.0869 97.9272 31.4936 97.6472 31.0003C97.3672 30.4936 96.9872 30.1069 96.5072 29.8403C96.0405 29.5736 95.5072 29.4403 94.9072 29.4403C94.3072 29.4403 93.7672 29.5736 93.2872 29.8403C92.8072 30.1069 92.4272 30.4936 92.1472 31.0003C91.8672 31.4936 91.7272 32.0869 91.7272 32.7803C91.7272 33.4603 91.8672 34.0536 92.1472 34.5603C92.4272 35.0669 92.8072 35.4536 93.2872 35.7203C93.7672 35.9869 94.3072 36.1203 94.9072 36.1203ZM109.421 38.1203V35.9603L109.281 35.5003V31.7203C109.281 30.9869 109.061 30.4203 108.621 30.0203C108.181 29.6069 107.515 29.4003 106.621 29.4003C106.021 29.4003 105.428 29.4936 104.841 29.6803C104.268 29.8669 103.781 30.1269 103.381 30.4603L102.401 28.6403C102.975 28.2003 103.655 27.8736 104.441 27.6603C105.241 27.4336 106.068 27.3203 106.921 27.3203C108.468 27.3203 109.661 27.6936 110.501 28.4403C111.355 29.1736 111.781 30.3136 111.781 31.8603V38.1203H109.421ZM106.061 38.2603C105.261 38.2603 104.561 38.1269 103.961 37.8603C103.361 37.5803 102.895 37.2003 102.561 36.7203C102.241 36.2269 102.081 35.6736 102.081 35.0603C102.081 34.4603 102.221 33.9203 102.501 33.4403C102.795 32.9603 103.268 32.5803 103.921 32.3003C104.575 32.0203 105.441 31.8803 106.521 31.8803H109.621V33.5403H106.701C105.848 33.5403 105.275 33.6803 104.981 33.9603C104.688 34.2269 104.541 34.5603 104.541 34.9603C104.541 35.4136 104.721 35.7736 105.081 36.0403C105.441 36.3069 105.941 36.4403 106.581 36.4403C107.195 36.4403 107.741 36.3003 108.221 36.0203C108.715 35.7403 109.068 35.3269 109.281 34.7803L109.701 36.2803C109.461 36.9069 109.028 37.3936 108.401 37.7403C107.788 38.0869 107.008 38.2603 106.061 38.2603ZM121.05 27.3203C121.903 27.3203 122.663 27.4869 123.33 27.8203C124.01 28.1536 124.543 28.6669 124.93 29.3603C125.317 30.0403 125.51 30.9203 125.51 32.0003V38.1203H123.01V32.3203C123.01 31.3736 122.783 30.6669 122.33 30.2003C121.89 29.7336 121.27 29.5003 120.47 29.5003C119.883 29.5003 119.363 29.6203 118.91 29.8603C118.457 30.1003 118.103 30.4603 117.85 30.9403C117.61 31.4069 117.49 32.0003 117.49 32.7203V38.1203H114.99V23.2803H117.49V30.3203L116.95 29.4403C117.323 28.7603 117.863 28.2403 118.57 27.8803C119.29 27.5069 120.117 27.3203 121.05 27.3203Z" fill="white"/>
<defs>
<linearGradient id="paint0_linear_70_368" x1="76.4791" y1="15.7685" x2="108.569" y2="67.9514" gradientUnits="userSpaceOnUse">
<stop stop-color="#6B8CAE"/>
<stop offset="1" stop-color="#9CAF88"/>
</linearGradient>
</defs>
</svg>
